<?xml version="1.0" encoding="UTF-8" standalone="no"?>
<svg
   viewBox="0 0 491.3 384"
   version="1.1"
   id="svg25"
   sodipodi:docname="fast.svg"
   inkscape:version="1.1.2 (b8e25be8, 2022-02-05)"
   xmlns:inkscape="http://www.inkscape.org/namespaces/inkscape"
   xmlns:sodipodi="http://sodipodi.sourceforge.net/DTD/sodipodi-0.dtd"
   xmlns="http://www.w3.org/2000/svg"
   xmlns:svg="http://www.w3.org/2000/svg">
  <sodipodi:namedview
     id="namedview27"
     pagecolor="#ffffff"
     bordercolor="#666666"
     borderopacity="1.0"
     inkscape:pageshadow="2"
     inkscape:pageopacity="0.0"
     inkscape:pagecheckerboard="0"
     showgrid="false"
     inkscape:zoom="1.4895833"
     inkscape:cx="203.74825"
     inkscape:cy="124.86713"
     inkscape:window-width="1296"
     inkscape:window-height="794"
     inkscape:window-x="27"
     inkscape:window-y="104"
     inkscape:window-maximized="0"
     inkscape:current-layer="Isolation_Mode" />
  <defs
     id="defs4">
    <style
       id="style2">.cls-1{fill:#22272e;}.cls-2{fill:#6dafa7;}.cls-3{fill:#ffe779;}.cls-4{fill:none;stroke:#63737a;stroke-linecap:round;stroke-linejoin:round;stroke-width:12.69px;}</style>
  </defs>
  <g
     id="Isolation_Mode"
     data-name="Isolation Mode">
    <path
       class="cls-1"
       d="M100.28,275.53,77.73,300.21c-3.53,3.52-3.53,9.87,0,14.1h0a10.79,10.79,0,0,0,12.69,2.11l26.78-16.21Z"
       id="path6" />
    <path
       class="cls-1"
       d="M306.12,335.45l6.34,33.13c.71,4.94-2.11,10.58-7,12h0a9.73,9.73,0,0,1-12-5.64l-14.1-28.2Z"
       id="path8" />
    <circle
       class="cls-2"
       cx="230.69"
       cy="210.68"
       r="153.67"
       id="circle10"
       style="fill:#6c63ff;fill-opacity:1" />
    <circle
       class="cls-3"
       cx="230.59"
       cy="210.84"
       r="98.68"
       transform="translate(-81.55 224.8) rotate(-45)"
       id="circle12"
       style="fill:#ffffff;fill-opacity:1" />
    <polyline
       class="cls-4"
       points="258.19 245.93 230.69 210.68 245.5 161.34"
       id="polyline14" />
    <path
       class="cls-2"
       d="M132.71,62a8.21,8.21,0,0,1-10.57-5.64,44.69,44.69,0,0,1,81.77-31c2.82,4.23.7,9.16-4.23,11.28Z"
       id="path16"
       style="fill:#6c63ff;fill-opacity:1" />
    <path
       class="cls-2"
       d="M392.82,138.08a8.12,8.12,0,0,0,12,.7c14.1-15.51,15.51-38.77,2.11-56.39S371,59.83,352.64,69c-4.23,2.11-5.64,7.75-2.82,11.27Z"
       id="path18"
       style="fill:#6c63ff;fill-opacity:1" />
    <path
       class="cls-2"
       d="M300.48,45.73,260.3,34.45C254,32.34,249.73,26,251.84,19h0c2.12-6.35,8.46-10.58,15.51-8.46l40.18,11.28c6.34,2.11,10.57,8.46,8.46,15.5h0C313.87,43.62,306.82,47.85,300.48,45.73Z"
       id="path20"
       style="fill:#6c63ff;fill-opacity:1" />
    <rect
       class="cls-2"
       x="256.97"
       y="36.39"
       width="39.48"
       height="30.31"
       transform="translate(150.01 302.88) rotate(-73.8)"
       id="rect22"
       style="fill:#6c63ff;fill-opacity:1" />
  </g>
</svg>
