<?xml version="1.0" encoding="UTF-8" standalone="no"?>
<svg
   viewBox="0 0 491.3 384"
   version="1.1"
   id="svg902"
   sodipodi:docname="intu.svg"
   inkscape:version="1.1.2 (b8e25be8, 2022-02-05)"
   xmlns:inkscape="http://www.inkscape.org/namespaces/inkscape"
   xmlns:sodipodi="http://sodipodi.sourceforge.net/DTD/sodipodi-0.dtd"
   xmlns="http://www.w3.org/2000/svg"
   xmlns:svg="http://www.w3.org/2000/svg">
  <sodipodi:namedview
     id="namedview904"
     pagecolor="#ffffff"
     bordercolor="#666666"
     borderopacity="1.0"
     inkscape:pageshadow="2"
     inkscape:pageopacity="0.0"
     inkscape:pagecheckerboard="0"
     showgrid="false"
     inkscape:zoom="1.4895833"
     inkscape:cx="245.37063"
     inkscape:cy="192"
     inkscape:window-width="1312"
     inkscape:window-height="794"
     inkscape:window-x="0"
     inkscape:window-y="25"
     inkscape:window-maximized="0"
     inkscape:current-layer="Isolation_Mode" />
  <defs
     id="defs829">
    <style
       id="style824">.cls-1,.cls-5,.cls-7,.cls-9{fill:none;}.cls-2{fill:#f8ab5d;}.cls-3{fill:#ffe779;}.cls-4{clip-path:url(#clip-path);}.cls-5{stroke:#f8ab5d;}.cls-5,.cls-7,.cls-9{stroke-linecap:round;stroke-linejoin:round;stroke-width:2.6px;}.cls-6{fill:#22272e;}.cls-7{stroke:#6dafa7;}.cls-8{fill:#6dafa7;}.cls-9{stroke:#22272e;}.cls-10{fill:#63737a;}</style>
    <clipPath
       id="clip-path">
      <path
         class="cls-1"
         d="M235.05,382.12l-129.13-7.94a16,16,0,0,1-14.86-18.9l49.2-275.71a21.59,21.59,0,0,1,19-17.6L289,49.42a16.16,16.16,0,0,1,17.46,18.76l-49,296.05A21.39,21.39,0,0,1,235.05,382.12Z"
         id="path826" />
    </clipPath>
  </defs>
  <g
     id="Isolation_Mode"
     data-name="Isolation Mode">
    <g
       id="g1661">
      <path
         class="cls-2"
         d="M242.12,383,113,375.05a16,16,0,0,1-14.86-18.9l49.2-275.71a21.59,21.59,0,0,1,19-17.6l129.7-12.55A16.15,16.15,0,0,1,313.53,69l-49,296A21.27,21.27,0,0,1,242.12,383Z"
         id="path831"
         style="fill:#0000ff;fill-opacity:1" />
      <path
         class="cls-3"
         d="M235.05,382.12l-129.13-7.94a16,16,0,0,1-14.86-18.9l49.2-275.71a21.59,21.59,0,0,1,19-17.6L289,49.42a16.16,16.16,0,0,1,17.46,18.76l-49,296.05A21.39,21.39,0,0,1,235.05,382.12Z"
         id="path833"
         style="fill:#6c63ff;fill-opacity:1" />
      <g
         class="cls-4"
         clip-path="url(#clip-path)"
         id="g841"
         style="fill:#ffffff;fill-opacity:1">
        <path
           class="cls-2"
           d="M343.25,360l-198.81-8.65a8.35,8.35,0,0,1-7.79-9.67l15-85a10.5,10.5,0,0,1,10.24-8.65l196.5-1.59a10.49,10.49,0,0,1,10.39,12.12l-14.72,92.77A10.47,10.47,0,0,1,343.25,360Z"
           id="path839"
           style="fill:#ffffff;fill-opacity:1" />
      </g>
      <line
         class="cls-5"
         x1="137.23"
         y1="96.17"
         x2="304.01"
         y2="82.89"
         id="line843"
         style="fill:#00ff00" />
      <path
         class="cls-8"
         d="M144.3,147.38l-45.16,2.46-6.64,4.32A2.07,2.07,0,0,1,89.33,152l7.07-39.24a7,7,0,0,1,6.35-5.77l47-3.61a4.69,4.69,0,0,1,5.05,5.48l-6.06,34.34A4.88,4.88,0,0,1,144.3,147.38Z"
         id="path853"
         style="fill:#ffffff" />
      <line
         class="cls-9"
         x1="105.2"
         y1="118.53"
         x2="143.29"
         y2="115.79"
         id="line855" />
      <line
         class="cls-9"
         x1="103.47"
         y1="128.19"
         x2="141.56"
         y2="125.6"
         id="line857" />
      <line
         class="cls-9"
         x1="101.74"
         y1="137.72"
         x2="121.65"
         y2="136.56"
         id="line859" />
      <path
         class="cls-6"
         d="M332.43,351.24l-198.66-8.8a8.33,8.33,0,0,1-7.79-9.67l15-85a10.51,10.51,0,0,1,10.24-8.66l196.5-1.59a10.48,10.48,0,0,1,10.39,12.12L343.4,342.44A10.62,10.62,0,0,1,332.43,351.24Z"
         id="path879" />
      <g
         class="cls-4"
         clip-path="url(#clip-path)"
         id="g837"
         style="fill:#ffffff;fill-opacity:1">
        <path
           class="cls-2"
           d="m 365.18,226.3 -198.81,3.46 a 8.21,8.21 0 0 1 -8.22,-9.66 l 14.57,-83 a 10.59,10.59 0 0 1 9.52,-8.66 l 196.21,-13.13 a 10.44,10.44 0 0 1 11,12.12 L 375,217.64 a 9.73,9.73 0 0 1 -9.82,8.66 z"
           id="path835"
           style="fill:#ffffff;fill-opacity:1" />
      </g>
      <path
         class="cls-6"
         d="m 222.06,76.11 -14.28,1.3 c -1.3,0.15 -2,-0.86 -1.88,-2.31 v 0 a 3.39,3.39 0 0 1 2.74,-2.74 l 14.29,-1.3 c 1.3,-0.14 2.16,0.87 1.87,2.31 v 0 a 3.54,3.54 0 0 1 -2.74,2.74 z"
         id="path845" />
      <path
         class="cls-6"
         d="m 231.58,75.25 v 0 c -1.3,0.14 -2.16,-0.87 -1.87,-2.31 v 0 a 3.37,3.37 0 0 1 2.74,-2.74 v 0 c 1.3,-0.15 2.16,0.86 1.87,2.31 v 0 a 3.06,3.06 0 0 1 -2.74,2.74 z"
         id="path847" />
      <path
         class="cls-6"
         d="M 354.5,217.5 155.7,221 a 8.22,8.22 0 0 1 -8.23,-9.66 l 14.57,-83 a 10.59,10.59 0 0 1 9.53,-8.66 l 196.21,-13.13 a 10.44,10.44 0 0 1 11,12.12 l -14.43,90.17 a 9.83,9.83 0 0 1 -9.85,8.66 z"
         id="path861" />
      <path
         class="cls-3"
         d="m 207.2,154.74 c -1,5.92 -6.2,11 -11.54,11.25 -5.34,0.25 -8.8,-4.32 -7.79,-10.24 1.01,-5.92 6.2,-11 11.54,-11.25 5.34,-0.25 8.8,4.33 7.79,10.24 z"
         id="path863"
         style="fill:#ffffff" />
      <path
         class="cls-3"
         d="m 203.45,192.69 -23.66,0.72 a 5.06,5.06 0 0 1 -5.19,-5.92 l 0.43,-2.6 c 1.87,-10.67 11.11,-19.76 20.77,-20 v 0 c 9.67,-0.43 16.16,8.08 14.29,18.9 l -0.58,3.75 a 6.47,6.47 0 0 1 -6.06,5.15 z"
         id="path865"
         style="fill:#ffffff" />
      <path
         class="cls-8"
         d="m 333.15,155.75 -94.21,4.33 a 3,3 0 0 1 -3.17,-3.61 l 1,-6.35 a 4.74,4.74 0 0 1 4.33,-3.89 l 94.35,-4.91 a 3,3 0 0 1 3.17,3.61 l -1.15,6.93 a 4.48,4.48 0 0 1 -4.32,3.89 z"
         id="path867"
         style="fill:#ffffff" />
      <polygon
         class="cls-3"
         points="243.85,182.3 239.95,186.19 239.66,191.24 235.91,189.22 231.29,191.53 232.74,186.48 230.14,182.88 234.9,181.72 237.93,177.1 239.37,181.58 "
         id="polygon869" />
      <polygon
         class="cls-3"
         points="265.63,181.58 261.74,185.47 261.59,190.52 257.55,188.5 252.94,190.81 254.38,185.76 251.78,182.01 256.54,181 259.57,176.38 261.16,180.85 "
         id="polygon871" />
      <polygon
         class="cls-3"
         points="287.99,180.85 283.95,184.75 283.81,189.94 279.77,187.78 275.01,190.23 276.45,185.04 273.71,181.29 278.76,180.13 281.79,175.52 283.38,179.99 "
         id="polygon873" />
      <polygon
         class="cls-3"
         points="310.79,179.99 306.75,184.03 306.61,189.22 302.42,187.06 297.52,189.51 299.1,184.17 296.22,180.57 301.27,179.41 304.44,174.65 306.03,179.27 "
         id="polygon875" />
      <polygon
         class="cls-3"
         points="334.16,179.27 329.98,183.16 329.83,188.5 325.5,186.34 320.6,188.79 322.19,183.45 319.3,179.7 324.35,178.55 327.67,173.78 329.26,178.4 "
         id="polygon877" />
      <path
         class="cls-3"
         d="m 186,277.52 c -1,6.06 -6.2,11 -11.68,10.82 -5.48,-0.18 -8.8,-5 -7.79,-11.11 1.01,-6.11 6.2,-10.82 11.54,-10.82 5.34,0 9.08,5.05 7.93,11.11 z"
         id="path881"
         style="fill:#ffffff" />
      <path
         class="cls-3"
         d="m 181.81,316.47 -23.66,-0.72 a 5.22,5.22 0 0 1 -4.91,-5.92 l 0.58,-3 c 1.88,-11 11.11,-19.63 20.78,-19.48 v 0 c 9.66,0.14 16.15,9.23 14.13,20.34 l -0.57,3.61 a 6.27,6.27 0 0 1 -6.35,5.17 z"
         id="path883"
         style="fill:#ffffff" />
      <path
         class="cls-8"
         d="m 311.66,286.46 -94.22,-1.3 a 3.11,3.11 0 0 1 -3,-3.6 l 1.15,-6.64 a 4.64,4.64 0 0 1 4.62,-3.89 l 94.35,0.72 a 3.11,3.11 0 0 1 3,3.6 l -1.15,7.22 a 5,5 0 0 1 -4.75,3.89 z"
         id="path885"
         style="fill:#ffffff" />
      <polygon
         class="cls-3"
         points="222.49,308.25 218.6,312 218.46,317.19 214.56,314.74 209.94,316.9 211.38,311.71 208.93,307.96 213.55,307.09 216.58,302.62 218.02,307.24 "
         id="polygon887" />
      <polygon
         class="cls-3"
         points="244.42,308.82 240.38,312.58 240.24,317.77 236.2,315.46 231.58,317.63 233.03,312.43 230.43,308.39 235.34,307.67 238.36,303.05 239.81,307.67 "
         id="polygon889" />
      <polygon
         class="cls-3"
         points="266.79,309.4 262.75,313.15 262.46,318.49 258.42,316.04 253.66,318.2 255.24,313.01 252.5,308.97 257.41,308.25 260.58,303.63 262.02,308.25 "
         id="polygon891" />
      <polygon
         class="cls-10"
         points="289.58,309.98 285.4,313.88 285.25,319.21 281.07,316.76 276.16,318.92 277.75,313.59 275.01,309.55 280.06,308.68 283.23,304.06 284.82,308.82 "
         id="polygon893" />
      <polygon
         class="cls-10"
         points="312.81,310.56 308.63,314.45 308.48,319.93 304.3,317.34 299.25,319.65 300.83,314.16 297.95,310.27 303.14,309.4 306.32,304.64 308.05,309.4 "
         id="polygon895" />
      <path
         class="cls-6"
         d="m 329,18.69 a 5.82,5.82 0 1 0 -0.43,8.23 5.77,5.77 0 0 0 0.43,-8.23 z"
         id="path897" />
      <path
         class="cls-8"
         d="m 321.18,5.13 -1,-1.15 a 9.15,9.15 0 0 0 -13,-0.58 v 0 a 9.14,9.14 0 0 0 -0.57,13 l 1,1.16 a 11,11 0 0 1 2.45,4.61 c 0.29,1.3 0.72,2.89 1.15,4.33 a 4.32,4.32 0 0 0 7.07,2.17 l 6.49,-5.92 6.5,-5.91 a 4.28,4.28 0 0 0 -1.45,-7.22 c -1.44,-0.57 -2.88,-1 -4.18,-1.44 a 16.38,16.38 0 0 1 -4.46,-3.05 z"
         id="path899"
         style="fill:#6c63ff;fill-opacity:1" />
    </g>
  </g>
</svg>
