<?xml version="1.0" encoding="UTF-8" standalone="no"?>
<svg
   id="illustration"
   viewBox="0 0 1024 768"
   version="1.1"
   sodipodi:docname="rightpart.svg"
   inkscape:version="1.1.2 (b8e25be8, 2022-02-05)"
   xmlns:inkscape="http://www.inkscape.org/namespaces/inkscape"
   xmlns:sodipodi="http://sodipodi.sourceforge.net/DTD/sodipodi-0.dtd"
   xmlns="http://www.w3.org/2000/svg"
   xmlns:svg="http://www.w3.org/2000/svg">
  <sodipodi:namedview
     id="namedview345"
     pagecolor="#ffffff"
     bordercolor="#666666"
     borderopacity="1.0"
     inkscape:pageshadow="2"
     inkscape:pageopacity="0.0"
     inkscape:pagecheckerboard="0"
     showgrid="false"
     inkscape:zoom="0.54367959"
     inkscape:cx="534.32206"
     inkscape:cy="254.74563"
     inkscape:window-width="1440"
     inkscape:window-height="795"
     inkscape:window-x="0"
     inkscape:window-y="25"
     inkscape:window-maximized="0"
     inkscape:current-layer="illustration" />
  <defs
     id="defs10">
    <style
       id="style2">.cls-1,.cls-10,.cls-13,.cls-15,.cls-17,.cls-19,.cls-21,.cls-22,.cls-23,.cls-25,.cls-4,.cls-6{fill:none;}.cls-2{fill:#eaf9f3;}.cls-3{clip-path:url(#clip-path);}.cls-4,.cls-6{stroke:#b8d8c7;}.cls-10,.cls-13,.cls-15,.cls-17,.cls-19,.cls-21,.cls-22,.cls-23,.cls-25,.cls-4,.cls-6{stroke-linecap:round;stroke-linejoin:round;}.cls-10,.cls-13,.cls-15,.cls-17,.cls-19,.cls-21,.cls-22,.cls-25,.cls-4{stroke-width:1.8px;}.cls-5{fill:#b8d8c7;}.cls-6{stroke-width:1.8px;}.cls-7{fill:#63737a;}.cls-8{fill:#22272e;}.cls-9{fill:#f4c2c9;}.cls-10,.cls-23{stroke:#22272e;}.cls-11{fill:#6dafa7;}.cls-12{fill:#ffe779;}.cls-13{stroke:#63737a;}.cls-14{fill:#282828;}.cls-15{stroke:#282828;}.cls-16{fill:#f8ab5d;}.cls-17{stroke:#6dafa7;}.cls-18{fill:#e26e85;}.cls-19{stroke:#fff;}.cls-20{clip-path:url(#clip-path-2);}.cls-21{stroke:#f8ab5d;}.cls-22{stroke:#f4c2c9;}.cls-23{stroke-width:1.8px;}.cls-24{fill:#fff;}.cls-25{stroke:#e26e85;}</style>
    <clipPath
       id="clip-path">
      <path
         class="cls-1"
         d="M766.3,565.3l-520-14.9a48.07,48.07,0,0,1-46.5-43.3l-25.1-248a48.18,48.18,0,0,1,47.2-53l578.8-8a48.21,48.21,0,0,1,48.5,54.1L815.5,523.1A48.1,48.1,0,0,1,766.3,565.3Z"
         id="path4" />
    </clipPath>
    <clipPath
       id="clip-path-2">
      <path
         class="cls-1"
         d="M554.8,213.9s5,1.5,15.6,1.7,22.7,3.3,27.4,9.2,6.2,49.4,5.5,69.1-14.8,49-14.8,49-33.7,3.8-61.3,2.5-34.2-7.4-36.1-9.3-3-6.5-1.9-8.5,6.5-17.5,8.5-32.4-2.2-35.7-.3-54,9-23.7,9-23.7,8.9-3,24.3-3.5A235.38,235.38,0,0,1,554.8,213.9Z"
         id="path7" />
    </clipPath>
  </defs>
  <path
     class="cls-2"
     d="M 878.95516,705.07783 136.12423,684.75099 A 68.669005,65.577916 0 0 1 69.697997,625.6804 L 33.842117,287.35456 a 68.826142,65.727979 0 0 1 67.426203,-72.3035 l 826.82797,-10.91374 a 68.868998,65.768906 0 0 1 69.28321,73.80414 l -48.14111,369.56641 a 68.711861,65.618841 0 0 1 -70.28323,57.56996 z"
     id="path12"
     style="fill:#ffffff;fill-opacity:1;stroke-width:1.396" />
  <path
     class="cls-7"
     d="m 391.94601,413.75219 61.55867,-22.80162 a 6.1704548,6.1433605 0 0 0 3.93858,-5.66408 v 0 l -122.24211,-8.71399 18.81771,33.69409 31.80045,4.21175 a 12.50137,12.446477 0 0 0 6.1267,-0.72615 z"
     id="path82"
     style="stroke-width:1.45553" />
  <path
     class="cls-8"
     d="m 237.0282,391.53151 -11.0864,-86.12322 a 3.9094133,3.8922473 0 0 1 4.08446,-4.357 l 147.91588,10.45677 a 4.376209,4.3569933 0 0 1 4.08445,4.06653 l 8.75241,94.83723 a 3.8802387,3.8632008 0 0 1 -4.37619,4.21177 L 240.82092,395.45281 a 4.6387817,4.6184129 0 0 1 -3.79272,-3.9213 z"
     id="path84"
     style="stroke-width:1.45553" />
  <path
     class="cls-8"
     d="m 457.44326,385.43172 a 6.0245811,5.9981274 0 0 1 -3.93858,5.6641 l -61.55867,22.80159 a 10.780061,10.732727 0 0 1 -4.81385,0.72618 15.389669,15.322093 0 0 1 -3.7927,-4.50224 z"
     id="path86"
     style="stroke-width:1.45553" />
  <ellipse
     class="cls-7"
     cx="30.92861"
     cy="464.52298"
     rx="8.7388783"
     ry="10.182159"
     transform="matrix(0.80572576,-0.59228878,0.59567211,0.8032277,0,0)"
     id="ellipse88"
     style="fill:#ffffff;fill-opacity:1;stroke-width:1.45554" />
  <path
     class="cls-7"
     d="m 378.60233,267.76008 -241.42005,34.92397 a 9.313957,8.8946953 0 0 1 -10.71391,-8.1853 L 112.0403,86.864916 a 9.8996506,9.4540244 0 0 1 10.57106,-10.095207 l 241.84859,14.733539 a 9.3425273,8.9219798 0 0 1 8.714,8.048883 l 13.85664,158.112749 a 10.085358,9.6313727 0 0 1 -8.42826,10.0952 z"
     id="path98"
     style="stroke-width:1.396;fill:#000000" />
  <path
     class="cls-8"
     d="m 385.17353,267.48725 -242.56288,35.06038 a 9.313957,8.8946953 0 0 1 -10.7139,-8.18531 L 117.32583,85.773547 a 9.9996471,9.5495197 0 0 1 10.71391,-10.231646 l 242.84858,14.733546 a 9.3568126,8.9356219 0 0 1 8.71397,8.185304 L 393.6018,257.25562 a 9.728228,9.2903183 0 0 1 -8.42827,10.23163 z"
     id="path100"
     style="fill:#536dfe;fill-opacity:1;stroke-width:1.396" />
  <path
     class="cls-11"
     d="m 228.71342,160.46563 -69.72761,3.77608 a 4.0552869,4.0374804 0 0 1 -4.23034,-3.77608 l -4.08446,-58.67418 a 4.1428112,4.1246204 0 0 1 4.08446,-4.356984 l 69.72761,0.435705 a 4.0261123,4.0084339 0 0 1 4.08445,3.776059 l 4.08445,54.46242 a 4.1136364,4.0955737 0 0 1 -3.93856,4.35698 z"
     id="path102"
     style="fill:#f9f9f9;stroke-width:1.45553" />
  <path
     class="cls-12"
     d="m 303.69245,137.80928 -58.34946,2.03326 a 4.0552869,4.0374804 0 0 1 -4.23033,-3.77606 l -2.47985,-33.83932 a 4.1428112,4.1246204 0 0 1 4.08445,-4.356989 l 58.34948,0.435704 a 4.2303355,4.2117602 0 0 1 4.08445,3.776055 l 2.47985,31.37034 a 4.0261123,4.0084339 0 0 1 -3.93859,4.35701 z"
     id="path104"
     style="fill:#ffffff;stroke-width:1.45553" />
  <path
     class="cls-9"
     d="m 369.77321,135.63077 -49.15941,1.7428 a 4.0552869,4.0374804 0 0 1 -4.23035,-3.77607 l -2.47985,-30.64417 a 4.1428112,4.1246204 0 0 1 4.08448,-4.357003 l 49.1594,0.290474 a 4.2303355,4.2117602 0 0 1 4.08446,3.776059 l 2.33397,28.61092 a 3.9823502,3.9648638 0 0 1 -3.7927,4.35699 z"
     id="path106"
     style="fill:#ffffff;stroke-width:1.45553" />
  <path
     class="cls-13"
     d="m 233.08962,217.39701 -69.7276,7.55212 a 4.0406997,4.0229572 0 0 1 -4.52208,-3.77606 l -2.62573,-37.90582 a 4.1865732,4.1681903 0 0 1 3.79272,-4.35701 l 69.87346,-4.64746 a 4.0844618,4.0665271 0 0 1 4.37622,3.77605 l 2.62572,35.00119 a 4.376209,4.3569933 0 0 1 -3.79271,4.35699 z"
     id="path108"
     style="fill:#ffffff" />
  <path
     class="cls-9"
     d="m 310.25678,215.94469 -58.2036,6.82596 a 4.0406997,4.0229572 0 0 1 -4.52208,-3.77606 l -4.66795,-62.59547 a 4.0990492,4.0810505 0 0 1 3.79271,-4.35701 l 58.34944,-2.75942 a 4.0552869,4.0374804 0 0 1 4.23035,3.77605 l 4.66795,58.52895 a 4.1573985,4.1391436 0 0 1 -3.64682,4.357 z"
     id="path110"
     style="fill:#ffffff;stroke-width:1.45553" />
  <path
     class="cls-11"
     d="m 298.14924,160.17517 -41.86572,2.46897 a 1.6191973,1.6120876 0 0 0 -1.6046,1.88802 l 1.89634,25.85149 a 1.6921341,1.6847041 0 0 0 1.89636,1.59757 l 41.86574,-3.63084 a 1.6921341,1.6847041 0 0 0 1.60461,-1.888 l -1.89636,-24.68964 a 2.0130563,2.0042168 0 0 0 -1.89637,-1.59757 z"
     id="path112"
     style="fill:#000000;stroke-width:1.45553" />
  <path
     class="cls-12"
     d="m 375.60816,201.56661 -49.15941,5.37362 a 4.0406997,4.0229572 0 0 1 -4.5221,-3.77605 l -3.93857,-50.3959 a 4.0990492,4.0810505 0 0 1 3.7927,-4.35699 l 49.15941,-2.32373 a 4.0552869,4.0374804 0 0 1 4.23034,3.77605 l 3.93858,47.34601 a 3.9385882,3.9212939 0 0 1 -3.50095,4.35699 z"
     id="path114"
     style="fill:#ffffff;stroke-width:1.45553" />
  <line
     class="cls-13"
     x1="197.49643"
     y1="193.43355"
     x2="198.37172"
     y2="204.1808"
     id="line116" />
  <line
     class="cls-13"
     x1="192.82848"
     y1="199.2429"
     x2="203.03963"
     y2="198.37149"
     id="line118" />
  <path
     class="cls-14"
     d="m 267.36993,205.34268 c -0.29176,-2.90467 -2.47986,-5.2284 -5.1056,-4.93794 a 5.3243878,5.3010085 0 0 0 -4.37619,5.95456 5.0472278,5.0250656 0 0 0 5.25144,4.93792 5.6598969,5.6350446 0 0 0 4.23035,-5.95454 z"
     id="path120"
     style="stroke-width:1.45553" />
  <line
     class="cls-15"
     x1="275.83057"
     y1="204.47128"
     x2="303.10895"
     y2="201.71182"
     id="line122" />
  <path
     class="cls-11"
     d="m 336.51402,162.0632 a 4.9159415,4.8943557 0 0 0 -4.52209,-4.79269 c -2.33398,0.14522 -3.93858,2.46896 -3.79272,5.22839 0.14589,2.75942 2.18811,4.93793 4.52209,4.79269 2.33399,-0.14522 4.08447,-2.46895 3.79272,-5.22839 z"
     id="path124"
     style="fill:#000000;stroke-width:1.45553" />
  <line
     class="cls-15"
     x1="343.95358"
     y1="161.6275"
     x2="367.43921"
     y2="160.17517"
     id="line126" />
  <path
     class="cls-11"
     d="m 337.82689,177.60315 c -0.29176,-2.75944 -2.18811,-4.7927 -4.52208,-4.64745 -2.33399,0.14522 -3.93859,2.61418 -3.79273,5.37362 0.14587,2.75942 2.33397,4.93793 4.52209,4.64745 a 4.7117183,4.6910295 0 0 0 3.79272,-5.37362 z"
     id="path128"
     style="fill:#000000;stroke-width:1.45553" />
  <line
     class="cls-15"
     x1="345.12054"
     y1="177.0222"
     x2="368.75208"
     y2="175.13419"
     id="line130" />
  <path
     class="cls-11"
     d="m 339.13975,193.14308 c -0.29174,-2.75943 -2.1881,-4.7927 -4.52208,-4.64746 -2.33399,0.14524 -3.9386,2.6142 -3.79273,5.37363 0.14588,2.75943 2.33398,4.79269 4.52208,4.64746 a 4.8284173,4.8072159 0 0 0 3.79273,-5.37363 z"
     id="path132"
     style="fill:#000000;stroke-width:1.45553" />
  <line
     class="cls-15"
     x1="346.43341"
     y1="192.41693"
     x2="369.91907"
     y2="190.0932"
     id="line134" />
  <path
     class="cls-12"
     d="m 175.0319,120.96223 -9.48176,0.14525 a 1.8671825,1.8589837 0 0 1 -1.7505,-1.59757 l -0.72937,-9.87587 a 1.6921341,1.6847041 0 0 1 1.75048,-1.74278 h 9.48179 a 1.8671825,1.8589837 0 0 1 1.7505,1.59756 l 0.72935,9.73061 a 2.0130563,2.0042168 0 0 1 -1.75049,1.7428 z"
     id="path136"
     style="fill:#000000;stroke-width:1.45553" />
  <line
     class="cls-15"
     x1="185.24304"
     y1="107.89125"
     x2="218.06464"
     y2="107.74603"
     id="line138" />
  <line
     class="cls-15"
     x1="185.82655"
     y1="116.31479"
     x2="218.64815"
     y2="116.02431"
     id="line140" />
  <path
     class="cls-14"
     d="m 332.42956,118.6385 -7.43957,0.14524 a 1.2545133,1.2490046 0 0 1 -1.02111,-0.8714 l -0.72936,-9.44016 a 0.99194072,0.98758515 0 0 1 1.02111,-1.01663 h 7.43956 a 1.2545133,1.2490046 0 0 1 1.02111,0.8714 l 0.72938,9.29492 a 1.0940523,1.0892483 0 0 1 -1.02112,1.01663 z"
     id="path142"
     style="stroke-width:1.45553" />
  <line
     class="cls-15"
     x1="339.43143"
     y1="107.31033"
     x2="363.79236"
     y2="107.31033"
     id="line144" />
  <line
     class="cls-15"
     x1="340.1608"
     y1="114.71721"
     x2="364.37585"
     y2="114.42673"
     id="line146" />
  <line
     class="cls-15"
     x1="324.69821"
     y1="126.77155"
     x2="365.25113"
     y2="125.75493"
     id="line148" />
  <path
     class="cls-12"
     d="m 176.63651,143.47336 -9.48179,0.29046 a 1.7504836,1.7427973 0 0 1 -1.75048,-1.59755 l -0.72935,-9.87586 a 1.6483721,1.6411342 0 0 1 1.6046,-1.74279 l 9.48178,-0.29047 a 1.8671825,1.8589837 0 0 1 1.75049,1.59756 l 0.72937,9.73062 a 1.7942458,1.7863673 0 0 1 -1.60462,1.88803 z"
     id="path150"
     style="fill:#000000;stroke-width:1.45553" />
  <line
     class="cls-15"
     x1="186.84767"
     y1="130.11192"
     x2="219.66927"
     y2="129.24051"
     id="line152" />
  <line
     class="cls-15"
     x1="187.43118"
     y1="138.68066"
     x2="220.25272"
     y2="137.66403"
     id="line154" />
  <line
     class="cls-15"
     x1="250.30269"
     y1="107.60078"
     x2="296.69052"
     y2="107.45554"
     id="line158" />
  <line
     class="cls-15"
     x1="250.88617"
     y1="115.73384"
     x2="297.27399"
     y2="115.1529"
     id="line160" />
  <line
     class="cls-15"
     x1="251.76141"
     y1="128.51436"
     x2="276.70578"
     y2="127.93343"
     id="line162" />
  <path
     class="cls-7"
     d="m 368.31448,72.454376 a 4.376209,4.3569933 0 0 0 -3.64685,-4.211761 c -1.75048,-0.145231 -3.20922,1.742786 -2.91747,3.921287 a 4.1573985,4.1391436 0 0 0 3.64684,4.211761 c 1.75048,0.145231 3.06335,-1.742797 2.91748,-3.921287 z"
     id="path164"
     style="stroke-width:1.45553" />
  <path
     class="cls-16"
     d="m 427.53917,91.479909 -64.76789,-1.161861 a 4.9597034,4.9379257 0 0 1 -4.9597,-4.647455 l -5.83495,-71.018995 a 3.9823502,3.9648638 0 0 1 4.23033,-4.211771 l 65.05963,6.825973 a 5.0034656,4.9814957 0 0 1 4.52209,4.647451 l 5.68907,65.209666 a 3.9531755,3.9358174 0 0 1 -3.93858,4.356992 z"
     id="path170"
     style="fill:#1a1a1a;stroke-width:1.45553" />
  <path
     class="cls-12"
     d="m 431.04014,90.318048 -64.76789,-1.161861 a 4.9597034,4.9379257 0 0 1 -4.95973,-4.647465 l -5.83494,-71.01899 a 3.9823502,3.9648638 0 0 1 4.23035,-4.2117705 l 65.05964,6.8259725 a 5.0034656,4.9814957 0 0 1 4.52208,4.647452 l 5.68907,65.20967 a 4.0406997,4.0229572 0 0 1 -3.93858,4.356992 z"
     id="path172"
     style="opacity:1;fill:#536dfe;fill-opacity:1;stroke-width:1.45553" />
  <line
     class="cls-13"
     x1="383.77707"
     y1="22.494167"
     x2="418.0574"
     y2="25.689301"
     id="line174"
     style="fill:#8dffff;fill-opacity:0.493927;stroke:#ffffff;stroke-opacity:1" />
  <line
     class="cls-13"
     x1="384.36053"
     y1="29.46537"
     x2="418.6409"
     y2="32.370022"
     id="line176"
     style="fill:#000000;stroke:#ffffff;stroke-opacity:1" />
  <line
     class="cls-13"
     x1="385.6734"
     y1="45.440987"
     x2="420.09958"
     y2="47.76474"
     id="line178"
     style="stroke:#ffffff;stroke-opacity:1" />
  <line
     class="cls-13"
     x1="386.25696"
     y1="52.266964"
     x2="420.53717"
     y2="54.300228"
     id="line180"
     style="stroke:#ffffff;stroke-opacity:1" />
  <line
     class="cls-13"
     x1="387.71561"
     y1="68.387825"
     x2="421.996"
     y2="69.840179"
     id="line182"
     style="stroke:#ffffff;stroke-opacity:1" />
  <line
     class="cls-13"
     x1="388.29913"
     y1="75.213806"
     x2="422.57941"
     y2="76.375671"
     id="line184"
     style="stroke:#ffffff;stroke-opacity:1" />
  <polyline
     class="cls-17"
     points="420.6 157.1 421.8 158.6 423.5 156.3"
     id="polyline186"
     transform="matrix(1.4587364,0,0,1.4523312,-241.58319,-201.74575)"
     style="stroke:#000000;stroke-opacity:1" />
  <polyline
     class="cls-17"
     points="421.9 173.1 423.1 174.5 424.9 172.2"
     id="polyline188"
     transform="matrix(1.4587364,0,0,1.4523312,-241.58319,-201.74575)"
     style="stroke:#000000;stroke-opacity:1" />
  <polyline
     class="cls-17"
     points="423.2 188.8 424.5 190.2 426.2 187.8"
     id="polyline190"
     transform="matrix(1.4587364,0,0,1.4523312,-241.58319,-201.74575)"
     style="fill:#666666;stroke:#001e17;stroke-opacity:1" />
  <path
     class="cls-9"
     d="m 458.3185,193.57879 c 0,0 -9.04416,18.73508 -9.77353,30.64419 -0.72936,11.90911 11.96165,59.69081 32.67569,96.14431 0,0 19.54707,-6.39025 19.54707,-12.3448 0,-5.95457 -11.52401,-76.39263 -10.79465,-78.4259 0.72937,-2.03326 8.75242,-16.99226 8.75242,-23.38252 0,-6.39026 -37.34365,-19.60646 -40.407,-12.63528 z"
     id="path192"
     style="stroke-width:1.45553" />
  <path
     class="cls-18"
     d="m 498.7255,206.21407 c 0,-6.39026 -37.19778,-19.60646 -40.26113,-12.63528 0,0 -1.16698,2.61419 -2.77158,6.39026 11.81575,9.14968 24.50676,16.99226 38.94824,19.60648 2.04224,-4.64747 4.08447,-10.16633 4.08447,-13.36146 z"
     id="path194"
     style="stroke-width:1.45553" />
  <path
     class="cls-11"
     d="m 497.12089,113.99105 c 0,0 -14.58736,4.93792 -25.67376,29.918 -11.0864,24.98012 -22.90216,45.89367 -22.90216,45.89367 0,0 18.2342,18.00891 41.57399,27.15859 23.33977,9.44015 24.21503,-100.64654 7.00193,-102.97026 z"
     id="path196"
     style="fill:#536dfe;fill-opacity:1;stroke-width:1.45553" />
  <path
     class="cls-15"
     d="m 452.62943,182.39584 c 0,0 24.94438,20.33263 48.1383,29.19185"
     id="path198" />
  <path
     class="cls-9"
     d="m 545.84268,655.71055 c 0,0 -1.31287,30.49894 -1.02111,33.4036 0.29174,2.90466 -10.21116,9.14969 -23.19391,8.71399 -12.98275,-0.4357 -14.14973,-4.21175 -14.14973,-4.21175 0,0 -2.91748,-32.96791 -3.20922,-37.61537 -0.29176,-4.64747 38.94826,-6.53551 41.57397,-0.29047 z"
     id="path200"
     style="stroke-width:1.45553" />
  <path
     class="cls-8"
     d="m 545.11331,673.28374 c 0.29175,-8.71398 0.72937,-17.57319 0.72937,-17.57319 -2.62571,-6.24504 -41.86573,-4.357 -41.57397,0.29047 0.14586,2.17849 0.87523,10.31154 1.45872,18.44458 11.52402,5.6641 26.69488,4.21176 39.38588,-1.16186 z"
     id="path202"
     style="stroke-width:1.45553" />
  <path
     class="cls-8"
     d="m 544.82157,688.24276 c 0,0 1.167,8.56876 1.60461,17.86367 0.43762,9.29492 1.89636,26.28719 0.29175,29.19186 -1.60462,2.90466 -10.50291,5.37362 -31.36284,6.97119 -20.85994,1.59756 -40.11525,0.14522 -43.47033,-2.46898 -3.35511,-2.61419 -2.33399,-6.53549 0.87523,-9.58537 3.20923,-3.0499 15.90023,-16.55657 21.15168,-22.07543 6.85606,-7.26166 11.81576,-14.66855 11.81576,-15.53995 0.43763,-3.4856 1.16699,-3.4856 1.16699,-3.4856 0,0 0.87524,2.17851 2.04223,2.03326 1.16699,-0.14522 2.7716,-6.68071 9.77355,-5.08314 7.00193,1.59756 9.91939,6.39026 12.54513,6.39026 2.62571,0 9.77353,-1.01664 13.56624,-4.21177 z"
     id="path204"
     style="stroke-width:1.45553" />
  <path
     class="cls-9"
     d="m 600.5453,661.81034 c 0,0 3.93859,31.37033 4.66796,33.25837 0.72936,1.88803 8.02304,7.11642 19.4012,6.53549 11.37814,-0.58093 15.75434,-3.92129 16.19195,-4.64746 0.43763,-0.72616 -0.29173,-36.59873 -0.58349,-38.92245 -0.29175,-2.32374 -37.05189,-1.74281 -39.67762,3.77605 z"
     id="path206"
     style="stroke-width:1.45553" />
  <path
     class="cls-8"
     d="m 640.66055,674.15515 c -0.14587,-7.98783 -0.43763,-15.39472 -0.5835,-16.41135 -0.43762,-2.32373 -36.90602,-1.59756 -39.67763,3.9213 0,0 0.87525,6.9712 1.89637,14.52331 a 68.414735,68.114328 0 0 0 38.36476,-2.03326 z"
     id="path208"
     style="stroke-width:1.45553" />
  <path
     class="cls-8"
     d="m 604.62976,692.30929 a 35.987026,35.829009 0 0 0 -0.29174,6.82594 c 0.14587,1.88804 0.29174,4.50223 0.29174,7.69737 0.14586,6.68072 0.72936,29.77277 2.33396,33.11314 1.60462,3.34037 19.9847,6.09979 33.84269,6.24501 13.858,0.14526 24.06915,-3.48558 25.67377,-7.26165 1.6046,-3.77605 0.72936,-9.2949 -4.08447,-15.39469 -4.81381,-6.09979 -15.90022,-15.53995 -17.21307,-20.04218 a 69.231626,68.927634 0 0 0 -4.23035,-11.18294 9.5984851,9.5563386 0 0 1 -3.93859,3.19512 c -1.89634,0.58093 -4.66795,-7.26165 -10.64877,-7.55213 -5.98081,-0.29045 -8.60654,2.03327 -12.39927,7.55213 a 13.274501,13.216212 0 0 1 -9.3359,-3.19512 z"
     id="path210"
     style="stroke-width:1.45553" />
  <path
     class="cls-8"
     d="m 476.69859,283.04239 a 309.7189,308.35894 0 0 0 -5.25146,37.17965 c -1.75048,21.34928 4.37622,153.65665 5.25146,163.96821 0.87522,10.31154 4.23033,69.13094 8.02304,97.74187 3.06335,23.52777 0.87525,71.01899 8.02306,77.69972 7.14779,6.68072 29.02884,10.31156 42.59508,6.68072 13.56626,-3.63083 19.83883,-10.31154 21.44344,-15.83041 1.6046,-5.51886 -4.81383,-47.49123 -4.37621,-68.84049 0.43762,-21.34928 0,-84.38045 -0.72938,-99.33945 0,0 5.98082,-76.39262 13.12863,-93.8206 7.14783,-17.42797 17.50484,-81.62099 -2.33397,-100.21083 -20.13056,-18.58984 -84.02323,-8.27829 -85.77369,-5.22839 z"
     id="path212"
     style="stroke-width:1.45553" />
  <path
     class="cls-8"
     d="m 508.64491,291.46591 c 0,0 -0.14588,28.75613 1.02112,50.25065 a 124.15304,123.6079 0 0 0 2.18811,19.46124 c 3.64683,15.10425 11.52401,16.2661 17.50482,19.7517 5.98081,3.4856 27.42425,89.0279 36.17666,111.24855 0,0 6.71018,51.12207 11.96166,81.62101 5.25144,30.49897 4.3762,67.38817 8.31477,80.02344 3.9386,12.6353 26.98664,15.10425 38.21889,14.08763 11.23228,-1.01664 26.25726,-5.37364 25.81964,-18.44462 -0.43762,-13.07097 -2.62572,-50.25063 -4.52208,-81.91146 -1.89636,-31.66082 -5.5432,-78.86158 -6.41844,-89.89931 0,0 -4.3762,-52.2839 -6.71019,-79.15203 -2.33397,-26.86813 -1.02111,-54.31718 -4.52209,-100.64655 -3.79272,-46.47459 -119.17875,-32.24175 -119.03287,-6.39025 z"
     id="path214"
     style="stroke-width:1.45553" />
  <path
     class="cls-13"
     d="m 509.66603,341.71656 a 124.15304,123.6079 0 0 0 2.18811,19.46124 c 3.64683,15.10425 11.52401,16.2661 17.50482,19.7517 5.98081,3.4856 27.42425,89.0279 36.17666,111.24855"
     id="path216" />
  <path
     class="cls-13"
     d="m 529.35896,380.9295 c 0,0 -17.06721,-8.71399 -24.65264,-5.51886"
     id="path218" />
  <path
     class="cls-13"
     d="m 511.70825,676.6241 a 13.94552,13.884286 0 0 1 0,-4.35699"
     id="path224" />
  <path
     class="cls-13"
     d="m 523.81576,678.51214 v -6.24503"
     id="path226" />
  <path
     class="cls-13"
     d="m 538.549,675.60747 c 0,0 0.14588,-3.63083 0,-5.22839"
     id="path228" />
  <path
     class="cls-13"
     d="m 608.56834,677.4955 c 0,0 -0.72936,-3.92129 -0.72936,-5.08315"
     id="path230" />
  <path
     class="cls-13"
     d="m 623.15572,678.07644 a 43.907963,43.715166 0 0 0 0,-6.24502"
     id="path232" />
  <path
     class="cls-13"
     d="m 635.70084,675.75272 a 26.50524,26.388854 0 0 0 0,-4.93794"
     id="path234" />
  <path
     class="cls-19"
     d="m 497.99613,705.9612 c 0,0 11.08639,-8.85922 32.82156,3.34036"
     id="path236" />
  <path
     class="cls-19"
     d="m 489.68133,717.14416 c 0,0 13.71213,-10.8925 34.13443,2.32373"
     id="path238" />
  <path
     class="cls-19"
     d="m 648.53772,712.35146 c 0,0 -13.2745,-5.80933 -31.21696,3.63083"
     id="path240" />
  <path
     class="cls-19"
     d="m 654.51854,722.2273 c 0,0 -15.31673,-6.68072 -33.84268,5.37364"
     id="path242" />
  <path
     class="cls-12"
     d="m 567.72373,108.90789 c 0,0 7.29369,2.17849 22.75629,2.46896 15.4626,0.29046 33.11331,4.7927 39.96938,13.36144 6.85606,8.56875 9.04416,71.74515 8.02304,100.35608 -1.02111,28.61092 -21.58928,71.16422 -21.58928,71.16422 0,0 -49.15943,5.51887 -89.42055,3.63084 -40.26112,-1.88805 -49.8888,-10.74725 -52.66038,-13.50669 -2.7716,-2.75943 -4.37621,-9.44015 -2.7716,-12.34481 1.60461,-2.90466 9.48179,-25.41581 12.39925,-47.05552 2.91749,-21.63973 -3.20922,-51.84822 -0.43763,-78.42589 2.7716,-26.57765 13.12864,-34.42024 13.12864,-34.42024 0,0 12.98275,-4.35699 35.44728,-5.08316 a 343.35735,341.8497 0 0 1 35.15556,-0.14523 z"
     id="path244"
     style="fill:#536dfe;fill-opacity:1;stroke-width:1.45553" />
  <g
     class="cls-20"
     clip-path="url(#clip-path-2)"
     id="g256"
     style="fill:#536dfe;fill-opacity:1"
     transform="matrix(1.4587364,0,0,1.4523312,-241.58319,-201.74575)">
    <path
       class="cls-21"
       d="m 515.2,209.9 c 0,0 -12.9,19.8 -8.8,61.5 4.1,41.7 -13.9,63.2 -5.7,82.4"
       id="path246"
       style="fill:#536dfe;fill-opacity:1;stroke:#ffffff;stroke-opacity:1" />
    <path
       class="cls-21"
       d="m 584.9,213.6 c 0,0 -15.7,2.6 -19.6,29.1 -3.9,26.5 6.4,61.9 4.5,81.8 -1.9,19.9 -7.2,31.6 -7.2,31.6"
       id="path248"
       style="fill:#536dfe;fill-opacity:1;stroke:#ffffff;stroke-opacity:1" />
    <path
       class="cls-21"
       d="m 586.6,349.7 c 0,0 5.3,-49.9 0,-77.5 -5.3,-27.6 6.7,-51.6 20.2,-48.3"
       id="path250"
       style="fill:#536dfe;fill-opacity:1;stroke:#ffffff;stroke-opacity:1" />
    <path
       class="cls-21"
       d="m 540.2,351.8 c 0,0 4.4,-32.4 2.9,-61.4 -0.6,-10.9 -6.9,-64.4 16.4,-81.3"
       id="path252"
       style="fill:#536dfe;fill-opacity:1;stroke:#ffffff;stroke-opacity:1" />
    <path
       class="cls-21"
       d="m 515.2,349.7 c 0,0 6.9,-40.8 6.5,-64.8 -0.4,-24 -2.4,-74.8 9.7,-83"
       id="path254"
       style="fill:#536dfe;fill-opacity:1;stroke:#ffffff;stroke-opacity:1" />
  </g>
  <ellipse
     class="cls-16"
     cx="565.53558"
     cy="176.00558"
     id="circle258"
     rx="9.4817858"
     ry="9.4401531"
     style="fill:#ffffff;fill-opacity:1;stroke-width:1.45553" />
  <path
     class="cls-11"
     d="m 533.73517,103.38902 c -3.93858,0.14524 -7.00193,2.46897 -9.77354,5.2284 a 14.937461,14.871869 0 0 0 -4.08446,7.11641 c -5.54318,26.7229 2.91749,58.96466 13.71213,58.67419 13.56624,-0.43571 31.80044,-24.9801 46.09608,-52.86486 5.83493,-11.4734 -5.39734,-19.46123 -11.96165,-19.46123 -5.10558,-0.14523 -25.81963,0.8714 -33.98856,1.30709 z"
     id="path260"
     style="fill:#536dfe;fill-opacity:1;stroke-width:1.45553" />
  <path
     class="cls-8"
     d="m 596.02322,46.893347 a 51.362107,51.136578 0 0 1 -6.85606,23.382538 c -6.85607,11.618642 -15.17087,17.718441 -17.94246,22.946821 -2.7716,5.228401 -2.04223,-8.423511 0,-14.959004 2.04222,-6.535493 14.14974,-41.391441 24.79852,-31.370355 z"
     id="path262"
     style="stroke-width:1.45553" />
  <path
     class="cls-9"
     d="m 530.67182,91.044204 c 0,0 -1.6046,14.087616 -2.62572,19.461236 -1.02112,5.37365 -3.3551,19.46124 14.73324,20.33265 16.19197,0.8714 24.94439,-11.61866 28.15361,-17.71845 a 10.896761,10.848914 0 0 0 1.31285,-5.95455 c -0.4376,-6.39025 -1.31285,-22.075443 -0.87522,-34.855956 0.5835,-16.266101 -40.69876,7.26166 -40.69876,18.73507 z"
     id="path264"
     style="stroke-width:1.45553" />
  <path
     class="cls-18"
     d="m 562.76404,92.060845 c -8.60656,6.825956 -21.29756,10.021085 -33.25921,8.278275 -0.43761,3.77606 -1.02111,7.84259 -1.45873,10.16632 q -0.21881,1.08926 -0.43763,2.6142 c 14.73325,0.72618 31.50872,-6.53549 35.15557,-21.058795 z"
     id="path266"
     style="stroke-width:1.45553" />
  <path
     class="cls-8"
     d="m 513.45873,38.7603 c 0,0 -3.93858,5.664082 -3.35509,10.021071 0.58349,4.356999 8.89829,19.025539 13.12863,18.589846 4.23034,-0.435694 8.60655,-18.444602 3.64683,-24.399171 -4.95969,-5.95455 -11.81574,-6.971181 -13.42037,-4.211746 z"
     id="path268"
     style="stroke-width:1.45553" />
  <path
     class="cls-9"
     d="m 516.81382,47.03858 a 120.66668,120.13683 0 0 1 -1.45873,21.78496 c -1.89636,11.618652 -3.20921,29.046631 14.14974,33.83932 17.35897,4.79269 37.78129,-1.7428 44.19973,-25.56103 6.41842,-23.818226 11.08638,-47.926914 -11.08641,-54.89811 -22.17279,-6.971195 -48.43004,2.033264 -45.80433,24.83486 z"
     id="path270"
     style="stroke-width:1.45553" />
  <path
     class="cls-8"
     d="m 524.2534,58.657233 a 9.2921506,9.251349 0 0 1 -0.29177,5.228379 7.3957931,7.3633186 0 0 1 -1.31286,2.323733 6.345503,6.3176402 0 0 1 -0.87524,1.01663 c -0.14587,0.145242 -0.29174,0.435694 -0.43763,0.580935 a 2.0276435,2.0187402 0 0 0 0,1.307103 5.4702613,5.4462415 0 0 0 1.02113,1.742787 14.295616,14.232844 0 0 0 3.50096,3.049899 7.0165218,6.9857125 0 0 1 -4.9597,-1.597565 6.0829306,6.0562206 0 0 1 -1.89636,-2.323733 3.8656513,3.8486774 0 0 1 0,-3.340341 3.1800452,3.1660817 0 0 1 1.02113,-1.307103 c 0.29173,-0.290473 0.58349,-0.435694 0.72936,-0.726167 a 13.682947,13.622866 0 0 0 1.31287,-1.742807 19.299082,19.21434 0 0 0 2.18811,-4.21175 z"
     id="path272"
     style="stroke-width:1.45553" />
  <path
     class="cls-8"
     d="M 572.82932,65.337957 A 27.322131,27.20216 0 0 1 569.62009,55.31687 c -0.87525,-6.680721 -8.02305,-6.245023 -11.37814,-18.589832 -3.3551,-12.344832 -11.52402,2.904659 -24.50678,8.423519 -12.98275,5.51886 -23.1939,-3.340372 -28.44535,-13.216229 -5.25146,-9.875843 3.64683,-18.589831 9.62765,-22.6563665 5.98082,-4.0665134 12.25339,2.4689785 23.92328,-0.4356917 11.6699,-2.9046599 30.48759,-6.5354805 39.53176,6.5354902 9.04417,13.070983 18.38008,16.266111 17.79657,30.498959 -0.58348,14.232837 -17.35896,30.06325 -18.38007,30.208492 -1.02112,0.145221 -4.95969,-10.747254 -4.95969,-10.747254 z"
     id="path274"
     style="stroke-width:1.45553" />
  <path
     class="cls-8"
     d="m 542.04997,51.686034 c -0.43763,-1.161861 -0.87524,-3.34035 0.72937,-4.502221 1.60461,-1.161861 5.25146,-0.726163 8.75242,1.452336 3.06334,1.888024 3.93858,4.93793 1.89635,4.647455 -2.04222,-0.290455 -3.64684,-1.161861 -6.12669,-1.307105 -2.47985,-0.145222 -4.81382,0.726174 -5.25145,-0.290465 z"
     id="path276"
     style="stroke-width:1.45553" />
  <path
     class="cls-8"
     d="m 524.54514,50.088476 a 4.9451162,4.9234025 0 0 0 -0.43763,-4.211757 c -0.87524,-1.161871 -3.20922,-1.016628 -5.39731,0.580931 -1.89638,1.452326 -2.47987,4.211767 -1.16701,4.066523 a 14.776998,14.712113 0 0 1 3.79271,-0.580931 c 1.60462,0.145234 2.9175,1.016629 3.20924,0.145234 z"
     id="path278"
     style="stroke-width:1.45553" />
  <path
     class="cls-8"
     d="m 514.47984,76.230432 c 0,0 -0.14585,1.742786 2.33398,2.178512 2.47986,0.435683 2.77162,-3.340373 7.00194,-3.921309 2.62574,-0.290473 11.81578,0.435705 15.60847,3.921309 3.79274,3.485583 9.04417,7.552112 16.62962,5.228379 7.58543,-2.323732 12.1075,-12.925755 13.56624,-28.320453 1.31286,-14.087615 6.56431,-0.435708 6.56431,2.904664 0,2.323727 -2.18811,-1.01664 -4.81382,8.423526 -1.167,4.21174 0,16.120854 -4.5221,24.834849 -3.50096,6.680725 -13.2745,13.506671 -25.67375,14.378081 -12.39926,0.8714 -22.61041,-4.21176 -25.67376,-12.3448 -3.06335,-7.842597 -1.89637,-16.701833 -1.02113,-17.282758 z"
     id="path280"
     style="stroke-width:1.45553" />
  <path
     class="cls-8"
     d="m 520.46068,60.980965 v 0 a 2.129755,2.1204034 0 0 0 2.33398,-1.888038 l 0.14586,-1.161859 a 2.129755,2.1204034 0 0 0 -1.89635,-2.323732 v 0 a 2.129755,2.1204034 0 0 0 -2.33397,1.888023 l -0.14588,1.161874 a 2.129755,2.1204034 0 0 0 1.89636,2.323732 z"
     id="path282"
     style="stroke-width:1.45553" />
  <path
     class="cls-8"
     d="m 543.65459,62.433289 v 0 a 2.129755,2.1204034 0 0 0 2.33398,-1.888028 l 0.14586,-1.161861 a 2.129755,2.1204034 0 0 0 -1.89635,-2.323727 v 0 a 2.129755,2.1204034 0 0 0 -2.33398,1.888022 l -0.14589,1.161861 a 1.9692939,1.960647 0 0 0 1.89638,2.323733 z"
     id="path284"
     style="stroke-width:1.45553" />
  <path
     class="cls-9"
     d="m 571.2247,66.64506 c 0,0 3.93859,-8.713992 10.79465,-7.697365 6.85606,1.016641 3.50096,19.461249 -9.19003,19.316007"
     id="path286"
     style="stroke-width:1.45553" />
  <path
     class="cls-8"
     d="m 581.58172,65.483199 a 6.3746778,6.3466869 0 0 0 -1.16698,-1.016651 c -0.43764,-0.14522 -0.29176,0.145242 -0.58349,0.290473 0,0.145242 -0.29175,1.307082 -0.43763,2.323733 a 9.1316894,9.0915926 0 0 1 -1.02111,3.195131 4.1428112,4.1246204 0 0 1 -1.167,1.597555 1.8380077,1.8299372 0 0 1 -1.89636,0.290462 1.6921341,1.6847041 0 0 0 0.87525,-1.161871 c 0.14587,-0.435683 0.14587,-0.871388 0.29174,-1.307082 a 27.993151,27.870234 0 0 1 0.43763,-3.19512 l 0.43762,-1.742808 0.43762,-0.871409 c 0.14587,-0.14522 0.14587,-0.290462 0.43763,-0.435683 0.29174,-0.145242 0.43762,-0.290462 0.58348,-0.435704 a 2.9174727,2.9046622 0 0 1 1.31286,-0.290474 2.3048034,2.2946831 0 0 1 1.16699,0.726178 2.6403127,2.6287194 0 0 1 0.29175,2.03327 z"
     id="path288"
     style="stroke-width:1.45553" />
  <path
     class="cls-22"
     d="m 530.67182,84.363491 a 15.185445,15.118767 0 0 0 7.87718,1.01664"
     id="path290" />
  <ellipse
     class="cls-23"
     cx="-7.0135374"
     cy="517.86768"
     rx="13.216741"
     ry="8.7520733"
     transform="matrix(0.09539215,-0.99543977,0.99551881,0.09456376,0,0)"
     id="ellipse292" />
  <ellipse
     class="cls-23"
     cx="-6.7573471"
     cy="547.9458"
     rx="13.216741"
     ry="11.231826"
     transform="matrix(0.09539215,-0.99543977,0.99551881,0.09456376,0,0)"
     id="ellipse294" />
  <path
     class="cls-10"
     d="m 523.23227,58.947695 c 0,0 2.47986,-4.647464 10.35703,0.871399"
     id="path296" />
  <line
     class="cls-10"
     x1="555.90808"
     y1="59.673851"
     x2="572.39166"
     y2="63.159443"
     id="line298" />
  <path
     class="cls-9"
     d="m 619.07126,220.01121 7.7313,15.53995 c 0,0 -8.16893,11.03773 -16.92134,31.95128 -8.75243,20.91356 -15.17087,46.76506 -21.15168,54.17194 0,0 5.83493,13.94238 20.13055,20.04218 0,0 27.86187,-40.66527 40.55287,-58.3837 12.69101,-17.71845 24.79852,-40.37481 23.92328,-51.703 -1.31286,-16.7018 -14.00387,-41.39143 -15.17086,-48.07216 -1.16699,-6.68073 -38.8024,17.13751 -39.09412,36.45351 z"
     id="path300"
     style="stroke-width:1.45553" />
  <path
     class="cls-18"
     d="m 658.0195,183.5577 c -1.02111,-6.53547 -38.65652,17.13751 -38.94824,36.45351 l 1.16697,2.17851 a 138.09858,137.49219 0 0 1 44.05385,-21.63974 c -3.06335,-7.55213 -5.83494,-14.0876 -6.27258,-16.99228 z"
     id="path302"
     style="stroke-width:1.45553" />
  <path
     class="cls-8"
     d="m 596.02322,306.57015 c 2.04222,3.48559 9.04417,12.78051 25.38202,16.55657 a 0.72936817,0.72616553 0 0 1 0.43761,1.16186 l -7.43956,10.02109 c -0.14587,0.29046 -0.5835,0.29046 -0.87524,0.29046 -18.2342,-5.51885 -23.04803,-14.66854 -23.7774,-16.41133 a 0.4376209,0.43569933 0 0 1 0,-0.58094 l 4.9597,-10.89248 c 0.29175,-0.72616 1.02111,-0.72616 1.31287,-0.14523 z"
     id="path304"
     style="stroke-width:1.45553" />
  <ellipse
     class="cls-24"
     cx="34.138214"
     cy="679.99713"
     rx="6.9547534"
     ry="6.6783404"
     transform="matrix(0.52352763,-0.85200869,0.85405331,0.52018549,0,0)"
     id="ellipse306"
     style="stroke-width:1.45035" />
  <path
     class="cls-11"
     d="m 623.30159,123.57643 a 9.6276598,9.5853853 0 0 1 9.19003,3.48559 c 3.3551,4.21176 8.89831,12.34482 15.75436,26.28719 11.52402,23.38254 19.54706,38.77724 19.54706,38.77724 0,0 -39.96938,21.49451 -48.72178,27.88476 0,0 -16.19198,-27.15858 -21.44343,-38.48677 -5.10559,-10.74726 -3.64685,-52.57439 25.67376,-57.94801 z"
     id="path308"
     style="fill:#536dfe;fill-opacity:1;stroke-width:1.45553" />
  <path
     class="cls-15"
     d="m 614.11155,211.58769 a 280.87968,279.64635 0 0 1 49.15942,-28.17521"
     id="path310" />
  <path
     class="cls-13"
     d="m 583.04045,312.089 a 53.725259,53.489354 0 0 0 35.00968,34.27501"
     id="path312" />
  <path
     class="cls-25"
     d="m 626.80256,235.55116 a 21.881046,21.784966 0 0 1 11.96163,-6.82597"
     id="path314" />
  <path
     class="cls-7"
     d="m 842.98728,271.85943 -129.09816,-15.8304 a 7.6729531,7.6392617 0 0 1 -6.7102,-8.42351 l 13.71212,-127.5147 a 10.984284,10.936054 0 0 1 9.33591,-9.58538 L 863.8472,92.496539 a 7.7458899,7.7118782 0 0 1 8.75242,8.568761 l -19.8388,163.38725 a 8.7524181,8.7139866 0 0 1 -9.77354,7.40688 z"
     id="path316"
     style="fill:#000000;stroke-width:1.45553" />
  <path
     class="cls-8"
     d="M 838.61107,271.42375 709.51291,255.44809 a 7.6729531,7.6392617 0 0 1 -6.7102,-8.42352 l 13.71212,-127.51466 a 10.984284,10.936054 0 0 1 9.33591,-9.5854 L 859.47101,91.915613 a 7.7458899,7.7118782 0 0 1 8.75241,8.568757 l -19.83883,163.38724 a 8.8253549,8.7866031 0 0 1 -9.77352,7.55214 z"
     id="path318"
     style="fill:#536dfe;fill-opacity:1;stroke-width:1.45553" />
  <path
     class="cls-11"
     d="m 833.79724,152.91352 -101.09042,5.08315 a 2.727837,2.7158592 0 0 1 -2.91748,-3.04989 l 2.47985,-22.51113 a 2.8007737,2.7884757 0 0 1 2.47984,-2.46897 L 836.71471,119.9456 a 2.8153611,2.802999 0 0 1 3.06334,3.19513 l -3.35509,27.59429 c 0,1.01663 -1.16699,2.03326 -2.62572,2.1785 z"
     id="path320"
     style="fill:#f9f9f9;stroke-width:1.45553" />
  <line
     class="cls-10"
     x1="758.52631"
     y1="137.8093"
     x2="825.48242"
     y2="132.43567"
     id="line322" />
  <line
     class="cls-10"
     x1="757.65118"
     y1="146.37802"
     x2="793.68207"
     y2="143.90907"
     id="line324" />
  <ellipse
     class="cls-8"
     cx="225.70529"
     cy="721.6665"
     rx="4.942842"
     ry="4.0804272"
     transform="matrix(0.47632218,-0.87927082,0.88101642,0.4730857,0,0)"
     id="ellipse326"
     style="stroke-width:1.45554" />
  <path
     class="cls-9"
     d="m 828.10816,198.95242 -99.92343,-1.7428 a 2.9174727,2.9046622 0 0 1 -2.7716,-3.04991 l 2.47985,-22.36589 a 2.7132495,2.7013359 0 0 1 2.77161,-2.46897 l 100.6528,-3.19513 a 2.9174727,2.9046622 0 0 1 2.91746,3.19513 l -3.20921,27.30383 a 3.0049969,2.9918021 0 0 1 -2.91748,2.32374 z"
     id="path328"
     style="fill:#ffffff;stroke-width:1.45553" />
  <line
     class="cls-10"
     x1="754.00433"
     y1="178.76503"
     x2="820.23102"
     y2="177.89359"
     id="line330" />
  <line
     class="cls-10"
     x1="752.98328"
     y1="187.18849"
     x2="788.72217"
     y2="187.18849"
     id="line332" />
  <ellipse
     class="cls-8"
     cx="155.2019"
     cy="744.92883"
     rx="4.9420552"
     ry="3.9353204"
     transform="matrix(0.43662761,-0.89964234,0.90114238,0.43352325,0,0)"
     id="ellipse334"
     style="stroke-width:1.45552" />
  <path
     class="cls-12"
     d="m 822.56496,244.55562 -98.75644,-8.42353 a 2.9174727,2.9046622 0 0 1 -2.62573,-3.04991 l 2.47986,-22.22065 a 2.7424243,2.7303825 0 0 1 2.91746,-2.46897 l 99.48583,3.63083 a 2.9174727,2.9046622 0 0 1 2.7716,3.19513 l -3.20923,27.01336 a 3.0341716,3.0208487 0 0 1 -3.06335,2.32374 z"
     id="path336"
     style="fill:#ffffff;stroke-width:1.45553" />
  <line
     class="cls-10"
     x1="749.48236"
     y1="219.43027"
     x2="814.83368"
     y2="222.91588"
     id="line338" />
  <line
     class="cls-10"
     x1="748.46112"
     y1="227.7086"
     x2="783.76257"
     y2="230.17752"
     id="line340" />
  <ellipse
     class="cls-8"
     cx="83.789963"
     cy="762.81439"
     rx="4.9413095"
     ry="3.9359114"
     transform="matrix(0.39524738,-0.91857472,0.91982921,0.39231904,0,0)"
     id="ellipse342"
     style="stroke-width:1.45554" />
  <path
     class="cls-8"
     d="m 920.47899,522.44927 -38.8,-2.4 a 4.83,4.83 0 0 1 -4.5,-5.2 l 5.8999,-79.6 a 5.58,5.58 0 0 1 5.2001,-5.1 l 39.7,-2.4 a 4.86,4.86 0 0 1 5.1,5.2 l -6.6,84.4 a 5.71,5.71 0 0 1 -6,5.1 z"
     id="path906"
     style="fill:#22272e" />
  <path
     class="cls-8"
     d="m 917.77899,522.44927 -38.8,-2.4 a 4.83,4.83 0 0 1 -4.5,-5.2 l 5.9,-79.6 a 5.58,5.58 0 0 1 5.2,-5.1 l 39.7,-2.4 a 4.86,4.86 0 0 1 5.1,5.2 l -6.6,84.4 a 5.71,5.71 0 0 1 -6,5.1 z"
     id="path908"
     style="fill:#22272e" />
  <path
     class="cls-9"
     d="m 905.87899,437.04927 -7.4,0.4 a 0.94,0.94 0 0 1 -1,-1 v 0 a 1.11,1.11 0 0 1 1.1,-1.1 l 7.4,-0.4 a 0.94,0.94 0 0 1 1,1 v 0 a 1.11,1.11 0 0 1 -1.1,1.1 z"
     id="path910"
     style="fill:#63737a" />
  <path
     class="cls-9"
     d="m 910.17899,436.84927 h -0.2 a 0.94,0.94 0 0 1 -1,-1 v 0 a 1.38,1.38 0 0 1 1.2,-1.2 h 0.2 a 0.94,0.94 0 0 1 1,1 v 0 a 1.38,1.38 0 0 1 -1.2,1.2 z"
     id="path912"
     style="fill:#63737a" />
  <path
     class="cls-9"
     d="m 898.57889,450.34927 -9.8999,0.3 a 1.69,1.69 0 0 1 -1.7,-1.9 v 0 a 2.24,2.24 0 0 1 2,-2 l 9.9,-0.4 a 1.69,1.69 0 0 1 1.6999,1.9 v 0 a 2.16,2.16 0 0 1 -2,2.1 z"
     id="path914"
     style="fill:#fafafa;fill-opacity:1" />
  <path
     class="cls-9"
     d="m 895.97899,484.74927 -9.8,-0.1 a 1.8,1.8 0 0 1 -1.7,-1.9 v 0 a 2.14,2.14 0 0 1 2,-1.9 l 9.8,0.1 a 1.74,1.74 0 0 1 1.7,1.9 v 0 a 2.05,2.05 0 0 1 -2,1.9 z"
     id="path916"
     style="fill:#fafafa;fill-opacity:1" />
  <path
     class="cls-9"
     d="m 893.87899,512.54927 -9.8,-0.5 a 1.83,1.83 0 0 1 -1.7,-2 v 0 a 1.88,1.88 0 0 1 1.9,-1.8 l 9.7999,0.4 a 1.77,1.77 0 0 1 1.7001,2 v 0 a 1.9,1.9 0 0 1 -1.9,1.9 z"
     id="path918"
     style="fill:#fafafa;fill-opacity:1" />
  <path
     class="cls-10"
     d="m 916.67899,472.44927 -29.2,0.1 a 2.1,2.1 0 0 1 -2.1,-2.3 l 0.9,-12.7 a 2.05,2.05 0 0 1 2,-1.9 l 29.2999,-0.8 a 2.1,2.1 0 0 1 2.1,2.3 l -1,13.3 a 2,2 0 0 1 -1.9999,2 z"
     id="path920"
     style="fill:#fafaf0;fill-opacity:1" />
  <path
     class="cls-7"
     d="m 895.27899,501.84927 -10,-0.4 a 2.08,2.08 0 0 1 -2,-2.3 l 0.6,-7.6 a 2,2 0 0 1 2.1,-1.9 l 10.1,0.2 a 2.22,2.22 0 0 1 2.1,2.3 l -0.6,7.8 a 2.28,2.28 0 0 1 -2.3,1.9 z"
     id="path922"
     style="fill:#fafaf9;fill-opacity:1" />
  <path
     class="cls-11"
     d="m 914.27899,502.44927 -10.7001,-0.4 a 2.08,2.08 0 0 1 -2,-2.3 l 0.6001,-7.9 a 2,2 0 0 1 2.1,-1.9 l 10.7999,0.2 a 2.22,2.22 0 0 1 2.1001,2.3 l -0.6001,8.1 a 2.26,2.26 0 0 1 -2.2999,1.9 z"
     id="path924"
     style="fill:#fafaff;fill-opacity:0.68627453" />
  <path
     class="cls-6"
     d="m 706.37894,398.74927 156.60005,-16.2 a 4.65,4.65 0 0 1 5.0999,5 l -13.3999,152.4 a 7,7 0 0 1 -7.3,6.4 l -152.10005,-8.2 a 4.68,4.68 0 0 1 -4.4,-4.9 l 9.2,-127.9 a 7.15,7.15 0 0 1 6.3,-6.6 z"
     id="path950"
     style="fill:#536dfe;fill-opacity:1" />
  <polygon
     class="cls-12"
     points="528.4,262.3 529.4,248.7 522.2,249.1 521.3,262.5 "
     id="polygon954"
     style="fill:#000000"
     transform="translate(187.67894,181.54927)" />
  <polygon
     class="cls-10"
     points="528.4,262.3 521.3,262.5 520.8,269.1 527.9,268.9 "
     id="polygon956"
     style="fill:#ffffff"
     transform="translate(187.67894,181.54927)" />
  <polygon
     class="cls-12"
     points="543.6,248 544.9,230.5 537.7,231 536.5,248.3 "
     id="polygon958"
     style="fill:#000000"
     transform="translate(187.67894,181.54927)" />
  <polygon
     class="cls-10"
     points="543.6,248 536.5,248.3 535,268.7 542.1,268.5 "
     id="polygon960"
     style="fill:#ffffff"
     transform="translate(187.67894,181.54927)" />
  <polygon
     class="cls-12"
     points="558.6,236.3 551.5,236.8 550.7,247.6 557.8,247.2 "
     id="polygon962"
     style="fill:#ffffff"
     transform="translate(187.67894,181.54927)" />
  <polygon
     class="cls-10"
     points="557.8,247.2 550.7,247.6 549.2,268.4 556.3,268.2 "
     id="polygon964"
     style="fill:#000000"
     transform="translate(187.67894,181.54927)" />
  <polygon
     class="cls-12"
     points="571.5,254 572,246.4 564.9,246.8 564.4,254.4 "
     id="polygon966"
     style="fill:#ffffff"
     transform="translate(187.67894,181.54927)" />
  <polygon
     class="cls-10"
     points="571.5,254 564.4,254.4 563.4,268 570.5,267.8 "
     id="polygon968"
     style="fill:#000000"
     transform="translate(187.67894,181.54927)" />
  <polygon
     class="cls-12"
     points="586.2,245.7 585.7,253.2 578.6,253.6 579.1,246 580,234.8 587.1,234.3 "
     id="polygon970"
     style="fill:#000000"
     transform="translate(187.67894,181.54927)" />
  <polygon
     class="cls-10"
     points="585.7,253.2 578.6,253.6 577.5,267.6 584.6,267.5 "
     id="polygon972"
     style="fill:#ffffff"
     transform="translate(187.67894,181.54927)" />
  <path
     class="cls-8"
     d="m 831.87899,407.64927 -12.70005,20.1 -11.1,-15.1 a 27.35,27.35 0 0 1 15.20005,-6.3 19.74,19.74 0 0 1 8.6,1.3 z"
     id="path974"
     style="fill:#22272e" />
  <path
     class="cls-11"
     d="m 841.77899,426.14927 -22.60005,1.6 12.70005,-20.1 c 7,2.8 11.1,9.8 9.9,18.5 z"
     id="path976"
     style="fill:#ffffff" />
  <path
     class="cls-10"
     d="m 841.77899,426.14927 c 0,0.3 -0.1001,0.6 -0.1001,0.9 -2.1,11.9 -13.2,21.8 -24.89995,22.7 l 2.4,-22 z"
     id="path978"
     style="fill:#000000" />
  <path
     class="cls-13"
     d="m 819.17894,427.74927 -2.4,22 a 12.1,12.1 0 0 1 -1.9,0.1 c -11.9,0 -19.2,-9.7 -16.7,-21.4 a 28.35,28.35 0 0 1 9.9,-15.7 z"
     id="path980"
     style="fill:#ffffff" />
  <path
     class="cls-12"
     d="m 838.57889,466.84927 -5.2,50.7 -130.69995,-2.4 0.2,-3.9 28.3,-19.5 a 3.6,3.6 0 0 1 4.3,0.1 l 10.6,7.8 a 3.7,3.7 0 0 0 5.2,-0.8 l 10.5,-14 a 3.7,3.7 0 0 1 6,0.1 l 9.3,12.9 a 3.72,3.72 0 0 0 5.3,0.8 v 0 a 3.76,3.76 0 0 1 4.4,-0.1 l 6.6,4.7 a 3.76,3.76 0 0 0 5.3,-1 l 14.8,-22.8 a 3.76,3.76 0 0 1 5.3,-1 l 4.29995,3.1 a 3.69,3.69 0 0 0 5.2,-0.8 z"
     id="path982"
     style="fill:#ffffff" />
  <path
     class="cls-13"
     d="m 743.47894,482.94927 h -5.7 a 0.91,0.91 0 0 0 -0.7,0.3 l -1.3,1.3 a 1,1 0 0 1 -1.4,0 l -1,-1.3 a 0.91,0.91 0 0 0 -0.7,-0.3 h -5.5 a 0.77,0.77 0 0 1 -0.8,-0.9 l 0.8,-10.8 a 1.08,1.08 0 0 1 1,-1 l 16.3,-0.6 a 0.9,0.9 0 0 1 0.9,0.9 l -0.9,11.3 a 1,1 0 0 1 -1,1.1 z"
     id="path984"
     style="fill:#ffffff" />
  <path
     class="cls-11"
     d="m 796.87894,488.34927 -5.7,-0.1 a 0.91,0.91 0 0 0 -0.7,0.3 l -1.3,1.3 a 0.9,0.9 0 0 1 -1.4,-0.1 l -1,-1.3 a 0.91,0.91 0 0 0 -0.7,-0.3 l -5.4,-0.1 c -0.5,0 -0.8,-0.4 -0.8,-1 l 0.8,-10.9 a 1.07,1.07 0 0 1 0.9,-1 l 16.3,-0.4 a 0.92,0.92 0 0 1 0.9,1 l -0.9,11.6 a 0.94,0.94 0 0 1 -1,1 z"
     id="path986"
     style="fill:#ffffff" />
  <path
     class="cls-8"
     d="m 707.17894,580.74927 16.8,-55 a 3.66,3.66 0 0 1 3.5,-2.5 l 99.39995,2.8 a 2.52,2.52 0 0 1 2.4,3.2 l -19.49995,67.1 a 3.51,3.51 0 0 1 -3.9,2.5 l -96.5,-14.9 a 2.45,2.45 0 0 1 -2.2,-3.2 z"
     id="path1228"
     style="fill:#22272e" />
  <path
     class="cls-13"
     d="m 772.47894,535.44927 -7,23.8 a 1.5,1.5 0 0 1 -1.4,1 l -39.3,-3.4 a 1.35,1.35 0 0 1 -1.2,-1.7 l 6.6,-21.8 a 1.38,1.38 0 0 1 1.3,-1 l 39.7,1.4 a 1.38,1.38 0 0 1 1.3,1.7 z"
     id="path1234"
     style="fill:#ffffff" />
  <polygon
     class="cls-11"
     points="572.9,372.5 542.3,370.3 543.4,367.1 554.7,362.1 561.1,367.1 577.3,358.2 "
     id="polygon1236"
     style="fill:#000000"
     transform="translate(187.67894,181.54927)" />
  <path
     class="cls-10"
     d="m 202.12873,480.20821 -119.600001,20 a 7.84,7.84 0 0 1 -9,-6.6 l -15.3,-109.4 a 6.61,6.61 0 0 1 7.3,-7.5 l 118.200001,14 a 7.85,7.85 0 0 1 6.8,6.3 l 15.2,78.1 a 4.42,4.42 0 0 1 -3.6,5.1 z"
     id="path4902"
     style="fill:#f8ab5d" />
  <path
     class="cls-11"
     d="m 202.12873,480.20821 -119.600001,20 a 7.84,7.84 0 0 1 -9,-6.6 l -15.4,-109.4 a 6.61,6.61 0 0 1 7.3,-7.5 l 118.200001,14 a 7.85,7.85 0 0 1 6.8,6.3 l 15.2,78.1 a 4.28,4.28 0 0 1 -3.5,5.1 z"
     id="path4904"
     style="fill:#536dfe;fill-opacity:1" />
  <path
     class="cls-9"
     d="m 130.72873,473.30821 -29.5,3.4 a 4,4 0 0 1 -4.500001,-3.4 l -10.8,-72.2 a 3.12,3.12 0 0 1 3.4,-3.6 l 29.500001,2.2 a 4,4 0 0 1 3.7,3.4 l 11,66.6 a 3.32,3.32 0 0 1 -2.8,3.6 z"
     id="path4906"
     style="fill:#22272e" />
  <path
     class="cls-7"
     d="m 133.12873,472.00821 -29.5,3.4 a 4,4 0 0 1 -4.500001,-3.4 l -10.8,-72.2 a 3.12,3.12 0 0 1 3.4,-3.6 l 29.500001,2.2 a 4,4 0 0 1 3.7,3.4 l 11,66.6 a 3.24,3.24 0 0 1 -2.8,3.6 z"
     id="path4908"
     style="fill:#ffffff" />
  <line
     class="cls-15"
     x1="104.02875"
     y1="401.8082"
     x2="108.62875"
     y2="402.10822"
     id="line4910"
     style="fill:none;stroke:#22272e;stroke-width:1.8px;stroke-linecap:round;stroke-linejoin:round" />
  <line
     class="cls-15"
     x1="111.02875"
     y1="402.3082"
     x2="111.32874"
     y2="402.3082"
     id="line4912"
     style="fill:none;stroke:#22272e;stroke-width:1.8px;stroke-linecap:round;stroke-linejoin:round" />
  <line
     class="cls-15"
     x1="89.228729"
     y1="405.50818"
     x2="125.82875"
     y2="407.4082"
     id="line4914"
     style="fill:none;stroke:#22272e;stroke-width:1.8px;stroke-linecap:round;stroke-linejoin:round" />
  <line
     class="cls-15"
     x1="98.328735"
     y1="466.40823"
     x2="134.92876"
     y2="463.00827"
     id="line4916"
     style="fill:none;stroke:#22272e;stroke-width:1.8px;stroke-linecap:round;stroke-linejoin:round" />
  <path
     class="cls-9"
     d="m 172.82873,410.80821 c 0.5,2.8 -0.8,5 -2.9,4.9 -2.1,-0.1 -4.4,-2.5 -4.9,-5.3 -0.5,-2.8 0.8,-5.1 3,-4.9 2.2,0.2 4.2,2.5 4.8,5.3 z"
     id="path4918"
     style="fill:#22272e" />
  <path
     class="cls-9"
     d="m 176.72873,428.70821 h -9 a 3.22,3.22 0 0 1 -3.2,-2.7 l -0.3,-1.6 c -0.9,-5.3 1.6,-9.4 5.5,-9.3 v 0 c 3.9,0.1 7.7,4.3 8.6,9.4 l 0.3,1.8 a 1.9,1.9 0 0 1 -1.9,2.4 z"
     id="path4920"
     style="fill:#22272e" />
  <path
     class="cls-9"
     d="m 166.22873,444.50821 c 0.5,3 -0.9,5.5 -3.2,5.7 -2.3,0.2 -4.7,-2.2 -5.2,-5.3 -0.5,-3.1 0.9,-5.6 3.3,-5.7 2.4,-0.1 4.5,2.3 5.1,5.3 z"
     id="path4922"
     style="fill:#22272e" />
  <path
     class="cls-9"
     d="m 170.22873,463.60821 -9.5,1 a 3.3,3.3 0 0 1 -3.6,-2.7 l -0.3,-1.6 c -1,-5.6 1.7,-10.4 6,-10.7 v 0 c 4.1,-0.3 8.2,3.9 9.2,9.3 l 0.3,1.8 a 2.38,2.38 0 0 1 -2.1,2.9 z"
     id="path4924"
     style="fill:#22272e" />
  <path
     class="cls-9"
     d="m 190.62873,443.30821 c 0.5,2.8 -0.6,5.1 -2.6,5.3 -2,0.2 -4.1,-2.1 -4.6,-4.9 -0.5,-2.8 0.7,-5.2 2.7,-5.3 2,-0.1 4,2.2 4.5,4.9 z"
     id="path4926"
     style="fill:#22272e" />
  <path
     class="cls-9"
     d="m 194.22873,461.10821 -7.4,0.8 a 3.2,3.2 0 0 1 -3.5,-2.7 l -0.2,-1.3 c -1,-5.2 1.3,-9.6 4.9,-9.9 v 0 c 3.6,-0.2 7.2,3.7 8.1,8.7 l 0.3,1.5 a 2.58,2.58 0 0 1 -2.2,2.9 z"
     id="path4928"
     style="fill:#22272e" />
  <line
     class="cls-15"
     x1="138.42876"
     y1="430.60825"
     x2="147.62877"
     y2="430.50821"
     id="line4930"
     style="fill:none;stroke:#22272e;stroke-width:1.8px;stroke-linecap:round;stroke-linejoin:round" />
  <path
     class="cls-9"
     d="m 147.42873,434.70821 5.2,-3.4 a 0.9,0.9 0 0 0 -0.1,-1.6 l -6.4,-3.3 a 0.88,0.88 0 0 0 -1.3,1 l 1.2,6.7 a 0.87,0.87 0 0 0 1.4,0.6 z"
     id="path4932"
     style="fill:#22272e" />
  <path
     class="cls-7"
     d="m 742.07894,568.94927 -2.9,9 a 1.35,1.35 0 0 1 -1.5,0.9 l -18.9,-2.5 a 1.29,1.29 0 0 1 -1.1,-1.7 l 2.5,-8.4 a 1.5,1.5 0 0 1 1.4,-1 l 19.3,2 a 1.24,1.24 0 0 1 1.2,1.7 z"
     id="path1238"
     style="fill:#fafafa;fill-opacity:1" />
  <path
     class="cls-12"
     d="m 771.67894,571.94927 -3.2,9.9 a 1.35,1.35 0 0 1 -1.5,0.9 l -18,-2.4 a 1.35,1.35 0 0 1 -1.1,-1.8 l 3,-9.3 a 1.3,1.3 0 0 1 1.4,-0.9 l 18.2,1.8 a 1.35,1.35 0 0 1 1.2,1.8 z"
     id="path1240"
     style="fill:#ffffff" />
  <path
     class="cls-11"
     d="m 805.67894,575.34927 -3.4,11 a 1.35,1.35 0 0 1 -1.5,0.9 l -21.7,-2.9 a 1.35,1.35 0 0 1 -1.1,-1.8 l 3.3,-10.3 a 1.3,1.3 0 0 1 1.4,-0.9 l 21.7,2.2 a 1.39,1.39 0 0 1 1.3,1.8 z"
     id="path1242"
     style="fill:#ffffff" />
  <path
     class="cls-7"
     d="m 793.97894,540.24927 a 6.85,6.85 0 0 1 -6.8,5.1 c -2.9,-0.2 -4.4,-2.7 -3.6,-5.5 a 6.86,6.86 0 0 1 6.3,-4.7 4.07,4.07 0 0 1 4.1,5.1 z"
     id="path1244"
     style="fill:#ffffff" />
  <line
     class="cls-15"
     x1="801.07898"
     y1="536.94928"
     x2="815.67896"
     y2="537.44928"
     id="line1246"
     style="fill:none;stroke:#63737a;stroke-width:1.8px;stroke-linecap:round;stroke-linejoin:round" />
  <line
     class="cls-15"
     x1="778.27893"
     y1="555.94928"
     x2="809.57898"
     y2="558.14929"
     id="line1248"
     style="fill:none;stroke:#63737a;stroke-width:1.8px;stroke-linecap:round;stroke-linejoin:round" />
  <line
     class="cls-15"
     x1="799.37897"
     y1="542.8493"
     x2="813.97894"
     y2="543.44928"
     id="line1250"
     style="fill:none;stroke:#63737a;stroke-width:1.8px;stroke-linecap:round;stroke-linejoin:round" />
  <path
     class="cls-12"
     d="m 879.47899,393.44927 -76.00005,5.9 a 3.2,3.2 0 0 1 -3.4,-3.4 l 3.2,-43.9 a 5.54,5.54 0 0 1 4.8,-5.1 l 77.20005,-10.5 a 3.21,3.21 0 0 1 3.6,3.4 l -4.3,48.6 a 5.65,5.65 0 0 1 -5.1,5 z"
     id="path1252"
     style="fill:#000000" />
  <path
     class="cls-10"
     d="m 876.97899,391.84927 -76.00005,5.9 a 3.2,3.2 0 0 1 -3.4,-3.4 l 3.2,-43.9 a 5.54,5.54 0 0 1 4.8,-5.1 l 77.20005,-10.5 a 3.21,3.21 0 0 1 3.6,3.4 l -4.3,48.6 a 5.47,5.47 0 0 1 -5.1,5 z"
     id="path1254"
     style="fill:#536dfe;fill-opacity:1" />
  <path
     class="cls-8"
     d="m 826.37899,362.44927 a 6.7,6.7 0 0 1 -5.7001,6 4.28,4.28 0 0 1 -4.79995,-4.8 6.6,6.6 0 0 1 5.60005,-6 c 3,-0.4 5.1,1.8 4.9,4.8 z"
     id="path1256"
     style="fill:#22272e" />
  <path
     class="cls-8"
     d="m 824.87899,381.54927 -10.40005,1 a 3.46,3.46 0 0 1 -3.8,-3.9 v 0 a 12,12 0 0 1 10.10005,-10.7 v 0 c 5.2,-0.6 9.2,3.4 8.7,8.9 v 0 a 5.31,5.31 0 0 1 -4.6,4.7 z"
     id="path1258"
     style="fill:#22272e" />
  <line
     class="cls-15"
     x1="838.67896"
     y1="357.04929"
     x2="871.07892"
     y2="353.24927"
     id="line1260"
     style="fill:#ffffff;stroke:#fafafa;stroke-width:1.8px;stroke-linecap:round;stroke-linejoin:round;stroke-opacity:1" />
  <line
     class="cls-15"
     x1="837.87897"
     y1="365.94928"
     x2="870.27887"
     y2="362.44928"
     id="line1262"
     style="fill:none;stroke:#fafafa;stroke-width:1.8px;stroke-linecap:round;stroke-linejoin:round;stroke-opacity:1" />
  <line
     class="cls-15"
     x1="837.17896"
     y1="374.84927"
     x2="856.67889"
     y2="372.94928"
     id="line1264"
     style="fill:none;stroke:#fafafa;stroke-width:1.8px;stroke-linecap:round;stroke-linejoin:round;stroke-opacity:1" />
  <path
     class="cls-6"
     d="m 775.87894,296.74927 c -3.9,-3.9 -9.4,-6.2 -16.2,-7 a 24.2,24.2 0 0 0 -13.3,1.8 c -4.8,2.1 -8.4,5.8 -11.1,11.2 l -4.5,1.9 2.6,2.7 11.7,2.1 a 16.46,16.46 0 0 1 4.1,-6.7 c 2,-2 4.7,-2.8 8.1,-2.3 3.4,0.5 5.7,1.8 6.6,3.9 a 9.63,9.63 0 0 1 0.3,6.7 11.27,11.27 0 0 1 -3.4,5.3 13.25,13.25 0 0 1 -3.4,2.2 l -4,2 c -3.9,1.9 -6.5,3.7 -7.8,5.5 a 29.28,29.28 0 0 0 -3.1,6.4 l -4,1.3 2.6,2.7 12,3.3 a 20.45,20.45 0 0 1 2.2,-5.5 11,11 0 0 1 5,-4.2 l 4.1,-1.9 a 41.18,41.18 0 0 0 9,-5.2 18.61,18.61 0 0 0 6.1,-10.1 c 1.7,-6.6 0.5,-12 -3.6,-16.1 z"
     id="path1266"
     style="fill:#000000;stroke:#536dfe;stroke-opacity:1" />
  <path
     class="cls-6"
     d="m 745.67894,345.44927 -0.4,-0.1 a 6.7,6.7 0 0 0 -8.2,5 7.28,7.28 0 0 0 4.3,9 l 0.4,0.2 c 3.6,1.2 7.4,-1 8.5,-5 1.1,-4 -1,-8.1 -4.6,-9.1 z"
     id="path1268"
     style="fill:#000000;stroke:#536dfe;stroke-opacity:1" />
  <path
     class="cls-7"
     d="m 741.97894,283.14927 a 26.18,26.18 0 0 1 13.3,-1.8 c 6.8,0.8 12.2,3.1 16.2,7 4,3.9 5.3,9.5 3.5,16.3 a 19,19 0 0 1 -6.1,10.1 c -1.7,1.5 -4.7,3.2 -9,5.2 l -4.1,1.9 a 11,11 0 0 0 -5,4.2 26.69,26.69 0 0 0 -2.2,5.5 l -12,-3.3 c 1.7,-5.2 3.1,-8.6 4.5,-10.4 1.4,-1.8 3.9,-3.6 7.8,-5.5 l 4,-2 a 14.24,14.24 0 0 0 3.4,-2.2 10.15,10.15 0 0 0 3.4,-5.3 10.88,10.88 0 0 0 -0.3,-6.7 c -0.8,-2.1 -3.1,-3.4 -6.6,-3.9 -3.5,-0.5 -6.1,0.3 -8.1,2.3 a 15.26,15.26 0 0 0 -4.1,6.7 l -11.7,-2.1 c 2.8,-8.1 7,-13.3 13.1,-16 z m -1.3,53.2 0.4,0.1 a 7.26,7.26 0 0 1 4.6,9 v 0 c -1.1,4 -5,6.2 -8.5,5 l -0.4,-0.2 a 7.28,7.28 0 0 1 -4.3,-9 v 0 a 6.76,6.76 0 0 1 8.2,-4.9 z"
     id="path1270"
     style="fill:#536dfe;fill-opacity:1" />
  <path
     class="cls-19"
     d="m 412.26937,568.03682 -8.8,-80.6 a 5.41,5.41 0 0 0 -4.6,-4.7 l -114.1,-14.9 a 4.06,4.06 0 0 0 -4.5,4.5 l 11.2,96.1 a 5.31,5.31 0 0 0 5.3,4.7 l 111.4,-0.6 a 4,4 0 0 0 4.1,-4.5 z"
     id="path1091"
     style="fill:#63737a" />
  <path
     class="cls-12"
     d="m 417.36937,567.63682 -8.8,-81.2 a 5.31,5.31 0 0 0 -4.6,-4.7 l -114.9,-15 a 4.13,4.13 0 0 0 -4.6,4.5 l 11.3,96.8 a 5.31,5.31 0 0 0 5.3,4.7 l 112.3,-0.6 a 4.08,4.08 0 0 0 4,-4.5 z"
     id="path1093"
     style="fill:#22272e" />
  <path
     class="cls-8"
     d="m 402.86937,559.63682 h -91.4 l -0.3,-3 19.3,-27.2 a 8.58,8.58 0 0 1 10.4,-3 l 8.8,3.6 a 8.71,8.71 0 0 0 10.7,-3.5 l 3.9,-6.4 a 8.65,8.65 0 0 1 10.5,-3.6 8.59,8.59 0 0 0 10,-2.8 l 12,-15.7 z"
     id="path1095"
     style="fill:#536dfe;fill-opacity:1" />
  <line
     class="cls-21"
     x1="311.16937"
     y1="556.63684"
     x2="304.26938"
     y2="496.83682"
     id="line1097"
     style="fill:#ffffff;stroke:#fffff2;stroke-width:1.8px;stroke-linecap:round;stroke-linejoin:round;stroke-opacity:1" />
  <path
     class="cls-21"
     d="m 310.86937,553.93682 15.7,-41 a 8.15,8.15 0 0 1 10.7,-4.7 l 8.1,3.2 a 8.38,8.38 0 0 0 9.4,-2.4 l 5.4,-6.6 a 8.13,8.13 0 0 1 11.8,-0.9 v 0 a 8.13,8.13 0 0 0 9.9,0.8 l 14.6,-9.3"
     id="path1099"
     style="fill:none;stroke:#dcd1ff;stroke-width:1.8px;stroke-linecap:round;stroke-linejoin:round;stroke-opacity:0.66666675" />
  <path
     class="cls-16"
     d="m 303.56937,488.93682 -0.6,-4.8 a 1.16,1.16 0 0 1 1.3,-1.3 l 21.7,2.3 a 1.49,1.49 0 0 1 1.3,1.2 l 0.7,4.4 a 0.86,0.86 0 0 1 -1,1 l -22.1,-1.6 a 1.23,1.23 0 0 1 -1.3,-1.2 z"
     id="path1101"
     style="fill:#ffffff" />
  <path
     class="cls-8"
     d="m 177.96937,560.13682 c 0,0 37.4,-8.5 36.8,-28.3 l 57.2,4.5 c 0,0 -0.7,24.3 -38,36.7 -0.1,0 -39.8,-5.3 -56,-12.9 z"
     id="path1127"
     style="fill:#536dfe;fill-opacity:1" />
  <line
     class="cls-17"
     x1="225.86937"
     y1="559.23682"
     x2="235.96938"
     y2="560.63684"
     id="line1129"
     style="fill:none;stroke:#22272e;stroke-width:1.8px;stroke-linecap:round;stroke-linejoin:round" />
  <line
     class="cls-17"
     x1="230.06938"
     y1="555.23682"
     x2="241.76939"
     y2="556.83685"
     id="line1131"
     style="fill:none;stroke:#22272e;stroke-width:1.8px;stroke-linecap:round;stroke-linejoin:round" />
  <path
     class="cls-17"
     d="m 220.06937,545.63682 c 0,0 25.8,3.6 30.4,4.2"
     id="path1133"
     style="fill:none;stroke:#22272e;stroke-width:1.8px;stroke-linecap:round;stroke-linejoin:round" />
  <path
     class="cls-16"
     d="m 241.66937,540.43682 a 18.33,18.33 0 0 1 -0.8,2.7 0.76,0.76 0 0 1 -0.9,0.5 l -19.5,-2.1 a 0.86,0.86 0 0 1 -0.7,-1.2 7.94,7.94 0 0 0 0.6,-2.2 1,1 0 0 1 0.9,-0.7 l 19.6,1.8 c 0.5,0.3 0.9,0.7 0.8,1.2 z"
     id="path1137"
     style="fill:#ffffff" />
</svg>
