<?xml version="1.0" encoding="UTF-8" standalone="no"?>
<svg
   viewBox="0 0 500 500"
   version="1.1"
   id="svg1055"
   sodipodi:docname="503 Error Service Unavailable-cuate.svg"
   inkscape:version="1.1.2 (b8e25be8, 2022-02-05)"
   xmlns:inkscape="http://www.inkscape.org/namespaces/inkscape"
   xmlns:sodipodi="http://sodipodi.sourceforge.net/DTD/sodipodi-0.dtd"
   xmlns:xlink="http://www.w3.org/1999/xlink"
   xmlns="http://www.w3.org/2000/svg"
   xmlns:svg="http://www.w3.org/2000/svg">
  <defs
     id="defs1059">
    <linearGradient
       inkscape:collect="always"
       id="linearGradient13027">
      <stop
         style="stop-color:#373a3c;stop-opacity:1;"
         offset="0"
         id="stop13023" />
      <stop
         style="stop-color:#373a3c;stop-opacity:0;"
         offset="1"
         id="stop13025" />
    </linearGradient>
    <linearGradient
       inkscape:collect="always"
       xlink:href="#linearGradient13027"
       id="linearGradient13029"
       x1="150.13016"
       y1="106.44992"
       x2="379.38579"
       y2="106.44992"
       gradientUnits="userSpaceOnUse" />
  </defs>
  <sodipodi:namedview
     id="namedview1057"
     pagecolor="#ffffff"
     bordercolor="#666666"
     borderopacity="1.0"
     inkscape:pageshadow="2"
     inkscape:pageopacity="0.0"
     inkscape:pagecheckerboard="0"
     showgrid="false"
     inkscape:zoom="1.076544"
     inkscape:cx="214.11108"
     inkscape:cy="223.86451"
     inkscape:window-width="1440"
     inkscape:window-height="794"
     inkscape:window-x="0"
     inkscape:window-y="25"
     inkscape:window-maximized="0"
     inkscape:current-layer="freepik--Plant--inject-387" />
  <g
     id="freepik--background-simple--inject-387" />
  <g
     id="freepik--Floor--inject-387"
     transform="matrix(1.1641901,0,0,1.193452,-41.922428,-55.781286)">
    <polygon
       points="404.97,385.46 353.31,385.55 250,385.71 146.69,385.55 95.03,385.46 43.37,385.21 95.03,384.97 146.69,384.88 250,384.72 353.31,384.88 404.97,384.97 456.63,385.21 "
       style="fill:#263238"
       id="polygon827" />
  </g>
  <g
     id="freepik--Plant--inject-387"
     transform="matrix(1.1641901,0,0,1.193452,-48.258396,-82.000553)">
    <path
       d="m 447.31789,324.68486 c -11.77,15.95 -24,34.46 -27,54.46 0,0.3 0.45,0.4 0.52,0.1 a 119.24,119.24 0 0 1 5.21,-16 c 7.74,-2.13 15.34,-3.88 19.4,-11.57 4.15,-7.9 3.62,-18.19 2.83,-26.8 -0.09,-0.5 -0.72,-0.52 -0.96,-0.19 z"
       style="fill:#6c63ff;fill-opacity:1"
       id="path830" />
    <path
       d="m 426.11789,363.05486 c 5.29,-11.87 12.08,-23.79 20.71,-33.55 0.06,-0.07 0.15,0 0.1,0.09 -5.65,6.95 -9.95,14.52 -14.14,22.23 3.9,-4 8.17,-7.51 11.87,-11.7 0.07,-0.08 0.18,0 0.11,0.12 -3.66,4.4 -7.67,9.18 -12.45,12.43 q -1.92,3.56 -3.88,7.11 c 0.32,-0.18 0.65,-0.34 1,-0.5 0.06,0 0.11,0.06 0.05,0.08 -0.36,0.19 -0.72,0.38 -1.1,0.54 -0.62,1.12 -1.23,2.25 -1.87,3.37 -0.16,0.25 -0.51,0.03 -0.4,-0.22 z"
       style="fill:#263238"
       id="path832" />
    <path
       d="m 430.05789,358.91486 a 70.09,70.09 0 0 0 9,-6 c 0.07,-0.06 0.19,0.05 0.11,0.11 a 48.06,48.06 0 0 1 -9,6.15 c -0.13,0.03 -0.26,-0.18 -0.11,-0.26 z"
       style="fill:#263238"
       id="path834" />
    <path
       d="m 418.91789,376.14486 a 0.22,0.22 0 0 0 0.43,0 c 0.06,-6.59 0,-13.21 0.1,-19.82 1.69,-3.41 5.31,-5.29 7.83,-8 a 35,35 0 0 0 4.7,-6.54 47.07,47.07 0 0 0 5.45,-18.17 c 0.69,-7 -2,-30.29 -4.95,-29.48 -1.54,0.42 -6.53,11.93 -7.85,15.74 a 110.17,110.17 0 0 0 -4.68,19.3 c -2.41,15.51 -2.21,31.37 -1.03,46.97 z"
       style="fill:#6c63ff;fill-opacity:1"
       id="path836" />
    <path
       d="m 418.86789,347.68486 v 0 c 0.36,-8.33 2.24,-16.75 4,-24.83 1.89,-8.71 4.1,-16.91 8.58,-24.67 a 0.13,0.13 0 1 1 0.22,0.13 92.17,92.17 0 0 0 -6.87,18.95 c 0.3,-0.46 0.66,-0.91 1,-1.35 0.13,-0.18 0.41,0 0.29,0.17 a 11.91,11.91 0 0 1 -1.4,2 h -0.05 c -1.55,6.22 -2.65,12.59 -3.6,18.94 l 0.21,-0.25 c 0.05,0 0.13,0 0.1,0.08 -0.03,0.08 -0.25,0.42 -0.38,0.63 -0.48,3.22 -0.92,6.44 -1.37,9.63 5.74,-4.91 10.64,-10.69 13.41,-17.81 a 0,0 0 0 0 0.05,0 c -2.71,7.39 -7,14 -13.55,18.44 l -0.36,2.57 c 0,0.18 -0.31,0.13 -0.31,0 0,-0.76 0,-1.52 0.07,-2.28 a 0.18,0.18 0 0 1 -0.04,-0.35 z"
       style="fill:#263238"
       id="path838" />
    <path
       d="m 421.56789,335.68486 c 4.39,-6.54 8.49,-12.9 11.7,-20.14 0,-0.08 0.17,0 0.14,0.07 -2.71,7.18 -6.49,14.47 -11.62,20.24 -0.1,0.09 -0.3,-0.07 -0.22,-0.17 z"
       style="fill:#263238"
       id="path840" />
    <path
       d="m 427.39789,313.90486 c 1.82,-3.22 3.73,-6.34 5.44,-9.62 0,-0.09 0.18,0 0.14,0.08 a 50.13,50.13 0 0 1 -5.3,9.7 0.16124515,0.16124515 0 0 1 -0.28,-0.16 z"
       style="fill:#263238"
       id="path842" />
    <path
       d="m 426.68789,315.30486 c 0,0 0,0.05 0,0.05 z"
       style="fill:#263238"
       id="path844" />
    <path
       d="m 414.45789,357.09486 a 66.42,66.42 0 0 1 -1.54,13 l 0.21,1.42 a 62.25,62.25 0 0 0 2.32,-14.46 0.47,0.47 0 0 0 0,-0.45 v 0 a 96.29,96.29 0 0 0 -1.46,-19.6 c -2,-12.1 -6.49,-23.71 -14.93,-32.79 a 0.61,0.61 0 0 0 -0.94,0.2 c -3.4,8.66 -2.21,19 0.69,27.63 a 50.53,50.53 0 0 0 6.69,13.13 c 2.92,4.03 6.61,7.51 8.96,11.92 z"
       style="fill:#6c63ff;fill-opacity:1"
       id="path846" />
    <path
       d="m 400.06789,308.23486 c 8,13 13.57,28.37 14.25,43.71 0,0.27 -0.44,0.34 -0.48,0.07 -0.19,-1.38 -0.4,-2.75 -0.62,-4.11 v 0 c -3.31,-3.17 -6.7,-6.52 -9.07,-10.48 a 0.07106335,0.07106335 0 0 1 0.11,-0.09 109.88,109.88 0 0 0 8.82,9.6 c -0.58,-3.39 -1.25,-6.73 -2.06,-10 l -0.63,-0.74 c -0.14,-0.16 0.09,-0.4 0.24,-0.24 0.15,0.16 0.12,0.15 0.19,0.22 a 117.57,117.57 0 0 0 -4.18,-13.28 c -2,-2.43 -4.32,-4.53 -5.8,-7.46 0,-0.07 0.06,-0.12 0.11,-0.06 1.19,1.67 2.34,3.36 3.69,4.91 0.54,0.62 1.14,1.2 1.69,1.8 a 103.21,103.21 0 0 0 -6.53,-13.67 0.17,0.17 0 1 1 0.27,-0.18 z"
       style="fill:#000000;fill-opacity:0.811765"
       id="path848" />
    <path
       d="m 401.68789,324.24486 c 2.59,3.48 5.53,6.8 7.94,10.4 0.07,0.1 -0.08,0.21 -0.17,0.13 -3.09,-2.9 -5.7,-6.86 -7.94,-10.43 -0.07,-0.11 0.1,-0.2 0.17,-0.1 z"
       style="fill:#263238"
       id="path850" />
    <path
       d="m 409.98789,335.45486 0.11,0.11 c 0.08,0.07 0,0.19 -0.12,0.11 l -0.11,-0.11 c -0.07,-0.07 0.04,-0.19 0.12,-0.11 z"
       style="fill:#263238"
       id="path852" />
    <path
       d="m 387.53789,333.19486 a 39.85,39.85 0 0 0 8.44,19.8 20.87,20.87 0 0 0 6.85,5.34 c 3,1.47 6.07,3.16 9.13,4.36 a 60.12,60.12 0 0 1 3.24,11.49 c 0.1,-0.33 0.2,-0.68 0.29,-1 -2,-16.92 -12.91,-31.37 -26.91,-40.65 a 0.68,0.68 0 0 0 -1.04,0.66 z"
       style="fill:#6c63ff;fill-opacity:1"
       id="path854" />
    <path
       d="m 392.37789,338.18486 c -0.1,-0.08 0,-0.26 0.14,-0.18 a 57.3,57.3 0 0 1 17.84,22 c 0.1,0.23 -0.22,0.43 -0.35,0.2 -0.65,-1.14 -1.32,-2.25 -2,-3.34 v 0 c -3.2,-0.61 -6.22,-2.85 -8.59,-5 -0.07,-0.06 0,-0.15 0.09,-0.09 a 19.88,19.88 0 0 0 4,2.84 c 1.31,0.66 2.71,1.07 4.07,1.6 -1.19,-1.88 -2.42,-3.68 -3.71,-5.43 a 37.31,37.31 0 0 1 -9.6,-5.39 c -0.09,-0.07 0,-0.22 0.09,-0.16 a 92.26,92.26 0 0 0 8.92,4.77 80.62,80.62 0 0 0 -6.3,-7.34 c -1.09,-0.58 -2.19,-1.15 -3.24,-1.77 a 0.09,0.09 0 0 1 0.07,-0.16 11.64,11.64 0 0 1 2.48,1.22 c -1.22,-1.27 -2.49,-2.54 -3.91,-3.77 z"
       style="fill:#263238"
       id="path856" />
    <path
       d="m 392.66789,344.02486 a 3.54,3.54 0 0 1 0.54,0.39 c 0,0 0,0.11 -0.06,0.08 a 3.15,3.15 0 0 1 -0.57,-0.31 c -0.09,-0.07 0,-0.22 0.09,-0.16 z"
       style="fill:#263238"
       id="path858" />
    <polygon
       points="432.76,342.49 433.44,350.2 436.54,385.13 398.18,385.13 401.28,350.2 401.96,342.49 "
       style="fill:#000000"
       id="polygon860"
       transform="translate(0.79789237,25.68486)" />
    <polygon
       points="401.96,342.49 432.76,342.49 433.44,350.2 401.28,350.2 "
       style="fill:#263238"
       id="polygon862"
       transform="translate(0.79789237,25.68486)" />
    <rect
       x="400.91788"
       y="362.79483"
       width="34.470001"
       height="7.6199999"
       style="fill:#000000"
       id="rect864" />
    <text
       xml:space="preserve"
       style="font-style:normal;font-weight:normal;font-size:33.9348px;line-height:1.25;font-family:sans-serif;fill:#000000;fill-opacity:1;stroke:none;stroke-width:0.848371"
       x="222.1925"
       y="149.15991"
       id="text1355"
       transform="scale(1.0124895,0.98766456)"><tspan
         sodipodi:role="line"
         id="tspan1353"
         style="stroke-width:0.848371"></tspan></text>
  </g>
  <g
     id="freepik--Shadow--inject-387"
     transform="matrix(1.2452593,0,0,1.1282442,-83.450858,-38.124229)">
    <ellipse
       cx="250"
       cy="410.85001"
       rx="77.900002"
       ry="12.94"
       style="fill:#ebebeb"
       id="ellipse867" />
  </g>
  <g
     id="freepik--Cat--inject-387"
     transform="matrix(1.2452593,0,0,1.1282442,-74.799548,-33.68985)">
    <path
       d="m 174,288.79 c 0,0 6,-35 8.48,-41.91 1.74,-4.77 8.86,-16.8 13.95,-25.72 1,-1.8 7.58,-6.16 10.73,-7.83 4.24,-2.24 12.23,1.37 12.81,10.59 0.24,3.83 -6.28,8.2 -8.1,12.23 -2.56,5.66 -2.73,13 -2.94,14.2 -0.36,2 13.77,17.66 13.15,23.62 -0.62,5.96 -17,26.41 -20.55,27.59 -3.55,1.18 -27.42,-7 -27.53,-12.77 z"
       style="fill:#6c63ff;fill-opacity:1"
       id="path934" />
    <path
       d="m 203.11,228.47 c 3.19,2.35 8.29,3.75 11,4.39 2.57,-3.05 6,-6.13 5.83,-8.94 -0.58,-9.22 -8.56,-12.83 -12.8,-10.59 a 64.87,64.87 0 0 0 -8.43,5.55 c 0,0 -0.14,6.25 4.4,9.59 z"
       style="fill:#ebebeb"
       id="path936" />
    <path
       d="m 216.35,215.53 c 0.06,0 0.13,0.06 0.08,0.11 -1.42,1.33 -2.79,2.73 -4.08,4.2 a 8.11,8.11 0 0 0 -2.41,4.57 0.09,0.09 0 0 1 -0.17,0 8.49,8.49 0 0 1 1.51,-5.1 c 1.27,-1.77 3.21,-2.76 5.07,-3.78 z"
       style="fill:#263238"
       id="path938" />
    <path
       d="m 212,212.31 a 0.06403124,0.06403124 0 0 1 0.08,0.1 44.86,44.86 0 0 0 -3.7,4.24 c -1,1.25 -2.73,3.09 -2,4.81 0.12,0.3 0,0.33 -0.23,0.07 -1.08,-1.62 0,-3.69 1,-5.07 a 14.2,14.2 0 0 1 4.85,-4.15 z"
       style="fill:#263238"
       id="path940" />
    <path
       d="m 201.56,301.56 c 3.55,-1.18 19.92,-21.63 20.54,-27.59 0.47,-4.55 -7.65,-14.73 -11.36,-20.2 l -30.73,3 c -2.72,12.76 -6,32 -6,32 0.1,5.79 23.99,13.96 27.55,12.79 z"
       style="opacity:0.1"
       id="path942" />
    <path
       d="m 116.34,301.48 c 0,0 -29.83,-2.67 -30.89,-0.54 -0.7,1.39 5.88,19.16 9.62,25.05 3.74,5.89 27.77,28.54 34.12,33.53 z"
       style="fill:#6c63ff;fill-opacity:1"
       id="path944" />
    <path
       d="m 104.18,325.76 c 2.54,4 14.3,15.18 22.45,22.18 L 117,304.49 c -7.46,-1 -22.77,-2.8 -23.41,-1.34 -0.59,1.26 7,16.96 10.59,22.61 z"
       style="opacity:0.1"
       id="path946" />
    <path
       d="m 145,268.94 c 0,-0.74 -6.59,-22.32 3.17,-35.75 1.8,-2.49 34.64,27.94 34.64,27.94 z"
       style="fill:#6c63ff;fill-opacity:1"
       id="path948" />
    <path
       d="m 151.19,267.65 30.29,-6.25 c -3.16,-2.92 -26.29,-24.14 -27.66,-22.27 -7.32,10.08 -3.25,25.87 -2.63,28.52 z"
       style="opacity:0.1"
       id="path950" />
    <path
       d="m 235.91,301.29 c 0,0 -10.63,-28.27 -29,-41.92 -2.29,-1.69 -46.54,-0.18 -55.34,2 -2.5,0.62 -31.4,26.88 -39.65,43.82 -1.42,2.81 5.28,33.9 16.08,52.43 2.67,4.59 50.65,45.92 82,52.91 5.92,1.32 80.86,-1 98.86,-13.46 18,-12.46 49.4,-57.51 51.32,-70.1 1.92,-12.59 -42.88,-50.66 -58.11,-50.66 -15.23,0 -66.16,24.98 -66.16,24.98 z"
       style="fill:#6c63ff;fill-opacity:1"
       id="path952" />
    <path
       d="m 167.91,267.54 c 3.61,-5.43 10.84,-4.56 17.18,-0.35 5.12,3.41 8.22,10.11 4.76,15.32 -3.46,5.21 -11.76,4.34 -16.58,1.14 -4.82,-3.2 -9.27,-10.22 -5.36,-16.11 z"
       style="fill:#263238"
       id="path954" />
    <path
       d="m 168.89,268.94 c 3.39,-5.1 10.19,-4.28 16.15,-0.33 4.82,3.21 7.73,9.51 4.47,14.41 -3.26,4.9 -11,4.08 -15.58,1.07 -4.58,-3.01 -8.72,-9.61 -5.04,-15.15 z"
       style="fill:#ffffff"
       id="path956" />
    <path
       d="m 173.78,271 c 2.65,-4 8,-3.35 12.64,-0.25 3.77,2.51 6.05,7.44 3.5,11.27 -2.55,3.83 -8.65,3.2 -12.2,0.84 -3.55,-2.36 -6.83,-7.55 -3.94,-11.86 z"
       style="fill:#263238"
       id="path958" />
    <path
       d="m 170,272.4 c 1.21,-1.81 3.63,-1.52 5.74,-0.11 1.72,1.13 2.75,3.37 1.59,5.12 -1.16,1.75 -3.93,1.45 -5.53,0.38 -1.6,-1.07 -3.15,-3.42 -1.8,-5.39 z"
       style="fill:#ffffff"
       id="path960" />
    <path
       d="m 143.67,305.45 c -6.23,5.76 -4.94,13.43 0.23,19 a 12.73,12.73 0 0 0 18.12,0.2 c 6,-5.53 4.65,-14.38 0.72,-18.62 a 13.36,13.36 0 0 0 -19.07,-0.58 z"
       style="fill:#263238"
       id="path962" />
    <path
       d="m 145.35,306.06 c -5.85,5.42 -4.64,12.63 0.21,17.88 a 12,12 0 0 0 17,0.18 c 5.62,-5.2 4.37,-13.51 0.68,-17.5 a 12.58,12.58 0 0 0 -17.89,-0.56 z"
       style="fill:#ffffff"
       id="path964" />
    <path
       d="m 150,308.33 c -4.59,4.24 -3.64,9.88 0.16,14 a 9.36,9.36 0 0 0 13.34,0.14 c 4.39,-4.07 3.42,-10.57 0.53,-13.7 A 9.84,9.84 0 0 0 150,308.33 Z"
       style="fill:#263238"
       id="path966" />
    <path
       d="m 144.81,311.15 c -2.08,1.92 -1.65,4.48 0.07,6.35 a 4.26,4.26 0 0 0 6.06,0.06 4.54,4.54 0 0 0 0.24,-6.22 4.47,4.47 0 0 0 -6.37,-0.19 z"
       style="fill:#ffffff"
       id="path968" />
    <path
       d="m 168.93,296.52 c 0.62,0.36 5.25,-1.48 5.54,-1.87 0.29,-0.39 0.78,-5.41 0.28,-5.93 -0.5,-0.52 -3.07,2.51 -3.67,3.32 -0.6,0.81 -2.76,4.14 -2.15,4.48 z"
       style="fill:#263238"
       id="path970" />
    <path
       d="m 180.66,289.19 a 34.39,34.39 0 0 1 1,3.48 7.4,7.4 0 0 1 0.21,1.71 1.07,1.07 0 0 1 -0.16,0.62 1.15,1.15 0 0 1 -0.53,0.28 4.49,4.49 0 0 1 -1.6,0 12.92,12.92 0 0 1 -1.7,-0.37 26.4,26.4 0 0 1 -3.33,-1.19 l -2,-0.86 1.21,1.79 a 25.77,25.77 0 0 1 2.11,3.77 11.5,11.5 0 0 1 0.7,2 3.33,3.33 0 0 1 0,1.88 l -0.1,0.19 -0.11,0.17 c -0.11,0.11 -0.22,0.22 -0.34,0.32 a 3.52,3.52 0 0 1 -0.86,0.52 8.15,8.15 0 0 1 -2,0.55 20.89,20.89 0 0 1 -4.41,0.14 16.72,16.72 0 0 0 4.47,0.44 8.17,8.17 0 0 0 2.27,-0.41 3.3,3.3 0 0 0 2,-1.52 4.08,4.08 0 0 0 0.21,-2.49 11.65,11.65 0 0 0 -0.7,-2.21 24.64,24.64 0 0 0 -2.15,-4 l -0.77,0.93 a 24.5,24.5 0 0 0 3.54,1.18 12.79,12.79 0 0 0 1.87,0.3 4.85,4.85 0 0 0 2,-0.19 1.89,1.89 0 0 0 1,-0.69 1.86,1.86 0 0 0 0.22,-1.13 7.25,7.25 0 0 0 -0.43,-1.85 20.24,20.24 0 0 0 -1.62,-3.36 z"
       style="fill:#263238"
       id="path972" />
    <path
       d="m 190.77,268.57 q 3,-4.44 6.22,-8.7 c 2.15,-2.83 4.33,-5.65 6.64,-8.36 1.12,-1.38 2.29,-2.72 3.45,-4.07 1.16,-1.35 2.37,-2.66 3.58,-4 2.39,-2.64 4.92,-5.15 7.43,-7.7 -1.35,1.18 -2.71,2.34 -4,3.56 -1.29,1.22 -2.58,2.47 -3.82,3.76 -2.51,2.54 -4.87,5.23 -7.18,8 -2.31,2.77 -4.47,5.58 -6.54,8.5 q -1.54,2.19 -3,4.43 c -0.97,1.5 -1.92,3.01 -2.78,4.58 z"
       style="fill:#263238"
       id="path974" />
    <path
       d="m 193.29,268.71 c 1.06,-1.21 2.11,-2.43 3.19,-3.62 1.08,-1.19 2.14,-2.39 3.23,-3.57 2.18,-2.36 4.37,-4.71 6.64,-7 1.1,-1.16 2.25,-2.29 3.38,-3.42 l 3.48,-3.34 1.75,-1.65 1.78,-1.62 c 1.16,-1.11 2.41,-2.12 3.59,-3.22 -2.58,1.92 -5.1,3.94 -7.5,6.09 -2.4,2.15 -4.73,4.37 -7,6.66 -2.27,2.29 -4.44,4.66 -6.53,7.11 -2.09,2.45 -4.13,4.97 -6.01,7.58 z"
       style="fill:#263238"
       id="path976" />
    <path
       d="m 194.31,270.68 c 1,-0.9 2,-1.8 3,-2.68 1,-0.88 2,-1.78 3,-2.64 2,-1.74 4.07,-3.48 6.15,-5.16 2.08,-1.68 4.15,-3.38 6.25,-5 2.1,-1.62 4.24,-3.28 6.35,-4.94 -1.14,0.71 -2.27,1.44 -3.39,2.18 -1.12,0.74 -2.21,1.52 -3.29,2.31 -2.19,1.56 -4.3,3.23 -6.38,4.92 -2.08,1.69 -4.1,3.47 -6.05,5.31 -1.95,1.84 -3.86,3.69 -5.64,5.7 z"
       style="fill:#263238"
       id="path978" />
    <path
       d="m 149.42,335.7 c -1.53,1.6 -3,3.29 -4.4,5 -1.4,1.71 -2.79,3.44 -4.14,5.2 -2.7,3.51 -5.25,7.15 -7.69,10.85 -2.44,3.7 -4.72,7.5 -6.84,11.4 -1.07,1.93 -2.08,3.91 -3.08,5.89 -0.5,1 -1,2 -1.42,3 l -1.38,3 c 2.07,-3.92 4.11,-7.84 6.37,-11.64 1.1,-1.92 2.24,-3.81 3.38,-5.7 1.14,-1.89 2.34,-3.75 3.57,-5.58 2.38,-3.72 4.93,-7.34 7.53,-10.91 2.6,-3.57 5.28,-7.1 8.1,-10.51 z"
       style="fill:#263238"
       id="path980" />
    <path
       d="m 150.51,338.64 c -2.39,3.2 -4.6,6.53 -6.73,9.91 -2.13,3.38 -4.11,6.85 -6,10.35 -1.89,3.5 -3.78,7.1 -5.41,10.71 -1.63,3.61 -3.18,7.33 -4.55,11.08 0.85,-1.81 1.59,-3.66 2.48,-5.45 l 1.25,-2.71 1.32,-2.68 c 0.87,-1.79 1.78,-3.57 2.68,-5.34 0.9,-1.77 1.85,-3.53 2.82,-5.27 1.87,-3.52 3.86,-7 5.88,-10.4 q 1.51,-2.58 3.09,-5.13 c 1.03,-1.71 2.1,-3.39 3.17,-5.07 z"
       style="fill:#263238"
       id="path982" />
    <path
       d="M 153.21,339.13 C 151.5,342 150,345 148.53,348 c -1.47,3 -2.78,6.05 -4.07,9.12 -1.29,3.07 -2.46,6.19 -3.53,9.34 -0.55,1.57 -1.05,3.16 -1.57,4.74 -0.52,1.58 -0.94,3.19 -1.39,4.8 1.17,-3.12 2.28,-6.25 3.48,-9.35 1.2,-3.1 2.39,-6.19 3.67,-9.26 1.28,-3.07 2.58,-6.12 3.91,-9.16 q 1,-2.28 2.06,-4.54 c 0.68,-1.56 1.4,-3.06 2.12,-4.56 z"
       style="fill:#263238"
       id="path984" />
    <path
       d="m 178.62,320 c 1.72,-0.9 3.46,-1.67 5.16,-2.45 0.84,-0.42 1.71,-0.77 2.51,-1.21 a 12.15,12.15 0 0 0 2.16,-1.35 6.12,6.12 0 0 0 1.29,-2 c 0.4,-0.81 0.7,-1.68 1,-2.55 0.65,-1.75 1.27,-3.54 2,-5.33 a 23.84,23.84 0 0 1 -0.51,5.77 20.12,20.12 0 0 1 -0.8,2.84 6.86,6.86 0 0 1 -1.7,2.77 10.21,10.21 0 0 1 -2.7,1.58 27,27 0 0 1 -8.47,1.95 z"
       style="opacity:0.1"
       id="path986" />
    <path
       d="m 358.92,331.24 c 9.33,-19.08 19.74,-47.5 10.61,-69.28 -9.13,-21.78 -58.45,-57.96 -66.07,-79.65 -7.62,-21.69 0.2,-32.75 -6.66,-34 -3.51,-0.66 -11.1,17.9 -7.39,36.15 5.07,24.9 55.86,70.4 62,84.64 6.14,14.24 -0.34,26.35 -8.53,38.81 z"
       style="fill:#6c63ff;fill-opacity:1"
       id="path988" />
    <path
       d="m 254.08,373.2 c 5.13,0 6.58,-3.46 6.58,-3.46 0,0 2.48,4 6.67,2.75 4.19,-1.25 3.7,-6.37 3.7,-6.37 0,0 2.5,3.36 7,1.15 3.63,-1.77 1.72,-7.24 1.72,-7.24 a 6.67,6.67 0 0 0 8.28,0.7 c 2,-1.19 1.76,-5 2.09,-5.2 11.11,-8.53 33.61,-26.46 22.69,-70.73 -8.3,-33.65 -40.78,-44.21 -69,-42.8 -0.43,0 -0.66,-2.29 -3.71,-2.29 a 3.83,3.83 0 0 0 -3.71,1.95 4.07,4.07 0 0 0 -5.06,-0.89 4.35,4.35 0 0 0 -2.4,4.86 c -1.12,-0.6 -2.92,-3.46 -7,-1.86 -4.08,1.6 -3.34,6 -3.34,6 a 5.42,5.42 0 0 0 -6.07,-0.16 c -0.89,0.52 -1.13,4.29 -1.53,4.93 -4.91,-5.71 -7.68,0.87 -6.54,2.9 1.54,2.75 -2.29,4.49 -3,5.21 -17.37,17.28 -22.42,53.56 -9.61,76.54 16.35,29.34 42.53,32 56.9,31.24 -0.09,-0.03 1.26,2.77 5.34,2.77 z"
       style="fill:#455a64"
       id="path992" />
    <path
       d="m 270.22,354.52 c -16.56,-8.48 -26.87,-26.44 -32.91,-43.42 a 112.71,112.71 0 0 1 -4.91,-56.35 c 0.24,-1.42 -1.93,-2 -2.17,-0.6 a 115,115 0 0 0 5.56,59.33 c 6.34,16.9 16.73,34.49 33.29,43 1.29,0.65 2.43,-1.3 1.14,-1.96 z"
       style="fill:#000000"
       id="path994" />
    <path
       d="M 250.62,360.31 A 116.37,116.37 0 0 1 212.69,262.1 c 0.15,-1.44 -2.11,-1.43 -2.25,0 A 118.49,118.49 0 0 0 249,361.9 c 1.1,0.97 2.69,-0.62 1.62,-1.59 z"
       style="fill:#000000"
       id="path996" />
    <path
       d="m 290.28,356 c 18,-10.51 24,-31.44 24.21,-51.27 a 1,1 0 0 0 -0.58,-0.95 16.12,16.12 0 0 0 1.51,-3.22 c 0.47,-1.37 -1.7,-2 -2.17,-0.6 a 13.06,13.06 0 0 1 -14.7,8.86 1.09,1.09 0 0 0 -0.18,0 44.44,44.44 0 0 0 0.69,-4.9 0.73,0.73 0 0 0 0.27,0 16.75,16.75 0 0 0 15,-10.87 0.94,0.94 0 0 0 -0.79,-1.3 1,1 0 0 0 -0.08,-0.28 0.56,0.56 0 0 0 -0.05,-0.08 1.11,1.11 0 0 0 0.35,-1 C 310,268 292.63,256.12 272.44,249.88 l 0.37,-0.22 a 1.1225529,1.1225529 0 0 0 -1.13,-1.94 c -0.86,0.48 -1.7,1 -2.55,1.5 l -0.12,0.08 a 106.21,106.21 0 0 0 -24,19.86 1.14,1.14 0 0 0 -0.5,0.54 c -1.46,1.64 -2.89,3.31 -4.25,5.05 -0.06,-2.06 -0.06,-4.13 0,-6.2 a 1.1,1.1 0 0 0 0.9,-0.51 62.77,62.77 0 0 1 25.9,-22 c 1.32,-0.61 0.18,-2.55 -1.13,-2 a 64.72,64.72 0 0 0 -25.46,21 88,88 0 0 1 3.16,-17.24 1.13,1.13 0 0 0 -2.17,-0.6 c -11.75,40.92 6.75,82.58 40.48,106.89 1.18,0.85 2.3,-1.1 1.14,-1.94 l -0.41,-0.31 a 43.64,43.64 0 0 0 26.77,-42.87 1.1,1.1 0 0 0 -0.16,-0.53 15.2,15.2 0 0 0 2.91,-2.53 c -0.48,19 -6.38,38.9 -24.17,48.59 a 1.13,1.13 0 0 0 -0.35,0.29 l -2,-0.36 c -1.42,-0.26 -2,1.91 -0.6,2.17 l 3.8,0.7 a 1.2,1.2 0 0 0 1.41,-1.3 z M 269.83,251.5 c 19,5.48 35.67,15.66 40.86,35.24 -10.24,-16.18 -27.68,-31 -47.25,-31.06 2.07,-1.52 4.21,-2.9 6.39,-4.23 z m -9.51,6.5 c 19.76,-1.55 37.47,13 47.94,29.08 a 69.29,69.29 0 0 0 -53.47,-24.54 c 1.78,-1.54 3.64,-3.09 5.53,-4.54 z m -12.08,10.86 c 1.36,-1.44 2.77,-2.82 4.2,-4.17 a 1,1 0 0 0 0.53,0.12 67.17,67.17 0 0 1 58.17,29.77 c -0.1,0.17 -0.19,0.35 -0.3,0.52 a 79,79 0 0 0 -62.6,-26.25 z m -7.62,12.14 3.18,-0.1 c 1.45,-0.05 1.45,-2.3 0,-2.25 l -3.35,0.11 c 0,-0.43 -0.08,-0.86 -0.1,-1.29 a 1.15,1.15 0 0 0 0.93,-0.47 c 1.53,-2 3.15,-3.91 4.81,-5.78 a 76.92,76.92 0 0 1 63.36,25.68 14.47,14.47 0 0 1 -2.61,2.27 0.79,0.79 0 0 0 -0.2,-0.26 86.92,86.92 0 0 0 -58.77,-20.25 c -1.45,0 -1.45,2.3 0,2.25 a 84.53,84.53 0 0 1 56.95,19.41 14.56,14.56 0 0 1 -3.8,1.16 1.06,1.06 0 0 0 -0.49,-0.69 98,98 0 0 0 -59.43,-15.64 c -0.19,-1.37 -0.35,-2.75 -0.48,-4.15 z m 51.65,38.17 a 35.58,35.58 0 0 1 -2.64,4.09 57.73,57.73 0 0 1 -19.82,-15.67 0.92,0.92 0 0 0 -0.57,-0.71 57.24,57.24 0 0 1 -9.78,-18.84 c 1.15,0.15 2.29,0.31 3.43,0.5 0,0 0,0 0,0.05 a 65.22,65.22 0 0 0 29.38,30.59 z m -5.6,-6 a 17,17 0 0 0 9.23,-3.43 37.24,37.24 0 0 1 -2.6,7.41 62.88,62.88 0 0 1 -6.63,-3.96 z M 285.84,327 a 22.77,22.77 0 0 1 -21.84,-1.53 15.7,15.7 0 0 1 2.65,-3.4 15.6,15.6 0 0 0 18.07,1.69 1,1 0 0 0 0.37,-0.34 c 1,0.57 2.06,1.12 3.11,1.64 -0.55,0.65 -1.14,1.27 -1.73,1.86 a 1.16,1.16 0 0 0 -0.63,0.08 z m -17.46,-6.41 a 16.92,16.92 0 0 1 7.29,-3 1,1 0 0 0 0.58,-0.32 59.69,59.69 0 0 0 6.7,4.83 13.2,13.2 0 0 1 -14.57,-1.5 z m 1.2,-25.44 a 1.13,1.13 0 0 0 -0.32,0.19 64,64 0 0 1 -3.63,-6.3 c 2.24,0.44 4.45,1 6.65,1.6 a 4.34,4.34 0 0 1 -2.7,4.52 z m 5,-3.88 a 95.27,95.27 0 0 1 9.26,3.3 11.29,11.29 0 0 1 -8.11,8.92 0.64,0.64 0 0 0 -0.14,0.08 62.73,62.73 0 0 1 -5.08,-6.39 6.6,6.6 0 0 0 4.04,-5.9 z m 2.71,14.09 a 13.51,13.51 0 0 0 8.68,-9.89 c 1.37,0.61 2.72,1.26 4.06,1.93 0,0 0,0.06 0,0.1 a 12.85,12.85 0 0 1 -10.45,10 q -1.22,-1.02 -2.32,-2.13 z m -35.79,-18 c 3.06,-0.17 6.11,-0.18 9.14,-0.07 a 16.88,16.88 0 0 0 -7.18,8.87 c -0.82,-2.87 -1.46,-5.8 -1.99,-8.77 z m 2.83,11.78 a 1,1 0 0 0 0.81,-0.77 14.76,14.76 0 0 1 8.63,-10.18 0.89,0.89 0 0 0 0.56,-0.69 c 1,0.08 2,0.15 2.93,0.25 a 1.07,1.07 0 0 0 0,0.64 59,59 0 0 0 4,10.12 16.8,16.8 0 0 0 -14.22,8.32 c -1.04,-2.49 -1.93,-5.06 -2.74,-7.66 z m 3.84,10.27 a 1.09,1.09 0 0 0 0.26,-0.33 14.6,14.6 0 0 1 14.09,-8.29 58,58 0 0 0 4.13,6.35 17.15,17.15 0 0 0 -13.31,12.45 99.26,99.26 0 0 1 -5.2,-10.15 z m 6.68,12.69 a 1,1 0 0 0 0.35,-0.58 15,15 0 0 1 13,-12.38 c 0.73,0.89 1.49,1.77 2.27,2.62 -6.12,2.76 -12.39,6.46 -13.6,13.45 -0.7,-1 -1.39,-2.03 -2.05,-3.08 z m 3.52,5.25 a 1.1,1.1 0 0 0 0.61,-0.91 c 0.58,-7.06 7.38,-10.43 13.15,-13 0.72,0.72 1.45,1.42 2.2,2.1 a 18.42,18.42 0 0 0 -14.37,13.95 c -0.56,-0.66 -1.1,-1.38 -1.62,-2.11 z m 15.87,7.08 a 15.93,15.93 0 0 1 -12.33,-3.2 17.19,17.19 0 0 1 1.09,-3.78 24.88,24.88 0 0 0 19.12,3.15 47.22,47.22 0 0 1 -6.95,4.08 1.09,1.09 0 0 0 -0.96,-0.22 z m -9.52,1 a 18.05,18.05 0 0 0 5.7,1.35 c -1.1,0.44 -2.21,0.88 -3.33,1.31 -0.84,-0.83 -1.62,-1.72 -2.4,-2.62 z m 4,4.42 c 8.67,-3.36 16.65,-7.35 22.45,-15 a 38.84,38.84 0 0 0 6.7,-14 c 0,0 0,0 0.07,0 a 16.8,16.8 0 0 0 5.71,-0.06 41.71,41.71 0 0 1 -29.42,33.37 1,1 0 0 0 -0.55,0.39 c -1.68,-1.45 -3.36,-3.03 -4.95,-4.66 z m 12.12,10.43 c -0.08,0 -0.12,0.09 -0.19,0.13 -1.78,-1.37 -3.54,-2.77 -5.23,-4.23 a 43.87,43.87 0 0 0 30.58,-35.69 0.64,0.64 0 0 0 0,-0.24 c 0.42,-0.15 0.83,-0.34 1.23,-0.52 a 41.38,41.38 0 0 1 -26.38,40.59 z m 2.7,-39.43 v 0 c -0.65,-0.5 -1.3,-1 -1.93,-1.54 A 15,15 0 0 0 292,298.45 q 2.5,1.33 4.94,2.8 a 39.81,39.81 0 0 1 -0.4,4.9 15.1,15.1 0 0 1 -12.99,4.74 z"
       style="fill:#000000"
       id="path998" />
    <path
       d="m 237.91,360.16 a 0.91,0.91 0 0 0 0.28,-0.23 c 1.05,0.54 2.33,-0.85 1.32,-1.74 A 101.49,101.49 0 0 1 206.05,270.8 c 0.16,-1.43 -2.09,-1.42 -2.25,0 -0.09,0.81 -0.16,1.62 -0.23,2.42 a 20,20 0 0 0 -13.68,6.63 c -1,1.08 0.62,2.67 1.59,1.59 a 17.72,17.72 0 0 1 11.92,-5.95 q -0.18,3 -0.2,5.94 A 35.83,35.83 0 0 0 186.34,290 c -1.08,1 0.52,2.55 1.59,1.59 a 33.35,33.35 0 0 1 15.26,-7.81 c 0,1.27 0.06,2.55 0.12,3.82 a 30.89,30.89 0 0 0 -17.87,9.58 c -1,1.06 0.6,2.66 1.59,1.59 a 29,29 0 0 1 16.42,-8.92 c 0.05,0.7 0.11,1.4 0.17,2.1 a 45,45 0 0 0 -19,10.76 c -1.05,1 0.54,2.58 1.59,1.59 a 42.65,42.65 0 0 1 17.67,-10.08 c 0.17,1.48 0.36,2.95 0.59,4.41 a 1,1 0 0 0 -0.62,0.08 41.18,41.18 0 0 0 -18.91,16.48 c -0.76,1.24 1.18,2.37 1.94,1.14 a 39.28,39.28 0 0 1 17.92,-15.6 c 0.25,1.35 0.51,2.7 0.81,4 a 1.08,1.08 0 0 0 -0.64,0.28 40.13,40.13 0 0 0 -12.87,30.1 1.13,1.13 0 0 0 2.25,0 37.82,37.82 0 0 1 11.8,-28.1 c 0.48,2 1,3.95 1.65,5.9 a 47.28,47.28 0 0 0 -11.48,26.75 1.17,1.17 0 0 0 -0.61,2.12 31.61,31.61 0 0 0 27.67,3.81 1,1 0 0 0 0.73,-0.83 c 1,1.31 2,2.59 3.06,3.86 a 25.34,25.34 0 0 1 -28.25,-1.19 c -1.19,-0.84 -2.32,1.11 -1.14,1.94 a 27.6,27.6 0 0 0 30.89,1 q 1.8,2.07 3.71,4.06 a 29.9,29.9 0 0 1 -23.2,2.68 1.13,1.13 0 0 0 -0.6,2.17 32.21,32.21 0 0 0 25.42,-3.21 c 0.79,0.78 1.59,1.55 2.41,2.32 a 36.65,36.65 0 0 1 -19.67,3.76 c -1.44,-0.12 -1.44,2.13 0,2.25 a 38.87,38.87 0 0 0 21.17,-4.24 z m -36.29,-33 a 45.36,45.36 0 0 1 7,-11.71 103.68,103.68 0 0 0 5.7,13.6 21.85,21.85 0 0 1 -12.66,-1.89 z m -0.77,2.1 a 24.57,24.57 0 0 0 14.3,1.92 1.18,1.18 0 0 0 0.2,-0.07 c 0.92,1.72 1.9,3.41 2.92,5.08 a 34.12,34.12 0 0 1 -18.86,-1.86 48.19,48.19 0 0 1 1.44,-5.09 z m -2.78,11.37 a 1.1,1.1 0 0 0 0.47,-0.83 c 0.11,-1.09 0.26,-2.17 0.45,-3.23 a 36.36,36.36 0 0 0 20,1.78 1,1 0 0 0 0.49,-0.24 c 1.15,1.8 2.37,3.56 3.63,5.3 a 0.84,0.84 0 0 0 -0.31,0 29.3,29.3 0 0 1 -24.73,-2.8 z"
       style="fill:#000000"
       id="path1000" />
    <path
       d="m 225.6,312 c -9,-19.25 -7.3,-40.59 -5.46,-61.14 0.13,-1.44 -2.12,-1.43 -2.25,0 -1.89,21 -3.4,42.61 5.76,62.27 0.62,1.34 2.56,0.2 1.95,-1.13 z"
       style="fill:#000000"
       id="path1002" />
    <path
       d="m 237.34,250.45 c 0.32,-2.85 0.63,-5.69 0.95,-8.54 0.16,-1.44 -2.09,-1.43 -2.25,0 -0.32,2.85 -0.64,5.69 -0.95,8.54 -0.16,1.44 2.09,1.43 2.25,0 z"
       style="fill:#000000"
       id="path1004" />
    <path
       d="m 271.05,365.9 a 73.6,73.6 0 0 1 -38.58,-40.06 c -0.53,-1.33 -2.71,-0.75 -2.17,0.6 a 75.86,75.86 0 0 0 39.62,41.41 c 1.31,0.58 2.45,-1.36 1.13,-1.95 z"
       style="fill:#000000"
       id="path1006" />
    <path
       d="m 281.5,358.78 a 134.79,134.79 0 0 1 -40.58,-51 c -0.61,-1.31 -2.55,-0.17 -1.95,1.14 a 137.19,137.19 0 0 0 41.4,51.77 c 1.15,0.92 2.27,-1.04 1.13,-1.91 z"
       style="fill:#000000"
       id="path1008" />
    <path
       d="m 239.52,304 a 1.13,1.13 0 0 0 -2.25,0 1.13,1.13 0 0 0 2.25,0 z"
       style="fill:#37474f"
       id="path1010" />
    <path
       d="m 230.64,306.17 a 108.63,108.63 0 0 1 -2.29,-60 c 0.34,-1.4 -1.83,-2 -2.17,-0.59 a 110.91,110.91 0 0 0 2.29,61.18 c 0.45,1.38 2.62,0.8 2.17,-0.59 z"
       style="fill:#000000"
       id="path1012" />
    <path
       d="m 227.79,317.53 a 1.13,1.13 0 0 0 -2.25,0 1.13,1.13 0 0 0 2.25,0 z"
       style="fill:#37474f"
       id="path1014" />
    <path
       d="m 247.25,368.53 a 19.52,19.52 0 0 0 2.28,1 c 1.37,0.5 2,-1.68 0.6,-2.17 a 16.05,16.05 0 0 1 -7.71,-5.93 c -0.83,-1.17 -2.78,-0.05 -1.95,1.14 0.17,0.24 0.35,0.46 0.53,0.69 a 28,28 0 0 1 -14.67,2.36 c -1.44,-0.15 -1.43,2.11 0,2.25 a 30,30 0 0 0 16.19,-2.84 19.5,19.5 0 0 0 2.36,2 22.48,22.48 0 0 1 -5.58,1.13 c -1.44,0.11 -1.45,2.36 0,2.25 a 25.88,25.88 0 0 0 7.95,-1.88 z"
       style="fill:#000000"
       id="path1016" />
    <path
       d="m 206.53,266.72 q 0.43,-2.91 0.85,-5.8 a 1.18,1.18 0 0 0 -0.34,-1 7.47,7.47 0 0 0 4.61,-4.71 c 0.47,-1.37 -1.7,-2 -2.17,-0.6 a 5.22,5.22 0 0 1 -4.36,3.51 c -1.43,0.14 -1.44,2.39 0,2.25 h 0.09 c -0.28,1.93 -0.57,3.85 -0.85,5.78 -0.21,1.38 1.96,2 2.17,0.57 z"
       style="fill:#000000"
       id="path1018" />
    <path
       d="m 192.39,344 c 0,0 18.05,-30.57 22.87,-36.12 3.33,-3.84 15.65,-10.63 23.58,-17.15 1.6,-1.32 4.23,-7.05 7.77,-7.48 4.76,-0.58 11.9,9.31 9.16,18.13 -2.74,8.82 -16,17.41 -17,19.17 -1,1.76 6.57,21.41 3.87,26.76 -2.7,5.35 -25.3,18.61 -29,18.44 -3.7,-0.17 -23.22,-16.36 -21.25,-21.75 z"
       style="fill:#6c63ff;fill-opacity:1"
       id="path1024" />
    <path
       d="m 245.28,302.93 a 12.36,12.36 0 0 0 8.49,2.54 17.1,17.1 0 0 0 2,-4.14 c 2.74,-8.81 -4.4,-18.7 -9.16,-18.12 -3.54,0.43 -6.18,6.16 -7.77,7.48 0,0 0.62,7.46 6.44,12.24 z"
       style="fill:#ebebeb"
       id="path1026" />
    <path
       d="m 252.59,286.24 a 0.07,0.07 0 0 1 0.1,0.09 c -1.13,1.59 -2.19,3.23 -3.16,4.92 a 8.12,8.12 0 0 0 -1.45,5 0.09,0.09 0 0 1 -0.17,0 8.59,8.59 0 0 1 0.46,-5.3 c 0.9,-1.95 2.63,-3.35 4.22,-4.71 z"
       style="fill:#263238"
       id="path1028" />
    <path
       d="m 248.44,283.12 c 0.06,0 0.14,0 0.1,0.09 a 43.53,43.53 0 0 0 -2.78,4.89 c -0.72,1.42 -2.06,3.58 -1,5.12 0.18,0.27 0,0.34 -0.21,0.11 -1.37,-1.37 -0.7,-3.62 -0.05,-5.16 a 14.48,14.48 0 0 1 3.94,-5.05 z"
       style="fill:#263238"
       id="path1030" />
    <path
       d="m 201.26,329.23 a 30.52,30.52 0 0 1 -1.72,3.81 c -0.62,1.24 -1.32,2.43 -2,3.61 -0.68,1.18 -1.45,2.34 -2.24,3.47 -0.79,1.13 -1.6,2.25 -2.49,3.35 a 20.36,20.36 0 0 1 1.47,-3.93 41.6,41.6 0 0 1 2,-3.66 c 0.73,-1.18 1.48,-2.34 2.31,-3.45 a 27.31,27.31 0 0 1 2.67,-3.2 z"
       style="fill:#263238"
       id="path1032" />
    <path
       d="m 241.78,348.47 a 45.93,45.93 0 0 1 -7.54,7.14 82.27,82.27 0 0 1 -8.6,5.84 75.59,75.59 0 0 1 -9.34,4.6 54.76,54.76 0 0 1 -9.94,3 c 3.14,-1.48 6.26,-2.88 9.3,-4.43 3.04,-1.55 6,-3.17 9,-4.91 3,-1.74 5.83,-3.52 8.7,-5.38 2.87,-1.86 5.69,-3.75 8.42,-5.86 z"
       style="fill:#263238"
       id="path1034" />
    <path
       d="m 221.53,362.6 a 14.43,14.43 0 0 1 -1.74,2.49 21.72,21.72 0 0 1 -2.11,2.18 16.24,16.24 0 0 1 -5.12,3.24 c 0.75,-0.7 1.5,-1.34 2.24,-2 0.74,-0.66 1.49,-1.31 2.21,-2 1.49,-1.3 2.93,-2.64 4.52,-3.91 z"
       style="fill:#263238"
       id="path1036" />
    <path
       d="m 290.25,365.78 c 0,0 -33.3,-47.67 -23.44,-67.41 7.27,-14.54 42.49,-35.13 42.49,-35.13 0,0 -16.62,-21.53 -16.84,-25.9 -0.22,-4.37 10.77,-4.56 16.68,-3.13 5.91,1.43 30,30.74 30.33,34.42 0.33,3.68 -7.76,17 -6.65,22.72 1.11,5.72 9.54,12.33 10.12,13.31 0.58,0.98 6.13,25 1.17,32.92 -4.96,7.92 -46.72,31.93 -53.86,28.2 z"
       style="fill:#6c63ff;fill-opacity:1"
       id="path1038" />
    <path
       d="m 301.49,252.74 c 9.25,1.07 14.32,-9.12 15.72,-12.46 -3.37,-3.27 -6.35,-5.66 -8.08,-6.08 -5.89,-1.42 -16.89,-1.23 -16.67,3.14 0.14,2.71 5.2,10.14 9.03,15.4 z"
       style="fill:#ebebeb"
       id="path1040" />
    <path
       d="m 299.66,233.17 a 0.07,0.07 0 0 1 0.13,0 c 0.3,2 0.68,4.05 1.16,6 a 8.51,8.51 0 0 0 2.48,4.83 0.09,0.09 0 0 1 -0.11,0.14 9,9 0 0 1 -3.48,-4.36 c -0.74,-2.13 -0.42,-4.4 -0.18,-6.61 z"
       style="fill:#263238"
       id="path1042" />
    <path
       d="m 294.25,233.8 a 0.07,0.07 0 0 1 0.14,0 44.11,44.11 0 0 0 1.42,5.73 c 0.47,1.6 1,4.21 2.91,4.64 0.33,0.07 0.26,0.24 -0.08,0.23 -2,-0.05 -3.15,-2.24 -3.77,-3.89 a 15.09,15.09 0 0 1 -0.62,-6.71 z"
       style="fill:#263238"
       id="path1044" />
    <path
       d="m 268.67,325.84 c 2.23,4.13 4.39,8.28 6.55,12.43 2.16,4.15 4.31,8.29 6.53,12.39 2.22,4.1 4.45,8.2 6.75,12.26 2.3,4.06 4.72,8 7.22,12 a 93.18,93.18 0 0 1 -8.55,-11.21 c -2.59,-3.93 -4.94,-8 -7.18,-12.13 -2.24,-4.13 -4.28,-8.37 -6.17,-12.66 -1.89,-4.29 -3.68,-8.62 -5.15,-13.08 z"
       style="fill:#263238"
       id="path1046" />
    <path
       d="m 333.6,293.63 a 108.79,108.79 0 0 0 8.06,8.77 c 0.36,0.33 0.72,0.66 1.09,1 a 10.68,10.68 0 0 1 1.19,1.09 7.9,7.9 0 0 1 1.43,3.05 32.36,32.36 0 0 1 0.87,6.11 86.71,86.71 0 0 1 -0.34,12.07 99.14,99.14 0 0 1 -1.79,11.89 c 0,-4 0.15,-8 0.23,-12 0.08,-4 0.13,-8 -0.1,-11.87 a 31.62,31.62 0 0 0 -0.7,-5.75 6.43,6.43 0 0 0 -0.94,-2.41 12.92,12.92 0 0 0 -1,-1 c -0.36,-0.36 -0.72,-0.73 -1.06,-1.1 a 50.19,50.19 0 0 1 -6.94,-9.85 z"
       style="fill:#263238"
       id="path1048" />
    <path
       d="m 285.35,359.18 a 45.71,45.71 0 0 1 2.36,5.68 c 0.66,1.93 1.28,3.86 1.77,5.88 a 22.52,22.52 0 0 1 -2.72,-5.55 27.82,27.82 0 0 1 -1.41,-6.01 z"
       style="fill:#263238"
       id="path1050" />
    <path
       d="m 345.25,322.75 a 15.41,15.41 0 0 1 2.27,4.15 15,15 0 0 1 0.65,2.29 6.67,6.67 0 0 1 0.12,2.4 c -0.28,-0.76 -0.58,-1.46 -0.87,-2.18 -0.29,-0.72 -0.56,-1.44 -0.84,-2.16 a 28.88,28.88 0 0 1 -1.33,-4.5 z"
       style="fill:#263238"
       id="path1052" />
  </g>
  <path
     class="cls-6"
     d="m 450.43546,73.618517 c -5.99722,-5.504312 -14.45485,-8.750446 -24.91156,-9.879535 a 37.213571,34.154967 0 0 0 -20.45209,2.540452 c -7.3812,2.96386 -12.9171,8.185901 -17.06903,15.807257 l -6.91988,2.681588 3.99815,3.810679 17.99169,2.96386 a 25.311379,23.231023 0 0 1 6.30478,-9.456127 c 3.0755,-2.822724 7.22742,-3.951814 12.45578,-3.246133 5.22835,0.705681 8.76518,2.540452 10.14915,5.504313 a 14.808541,13.591419 0 0 1 0.46133,9.456127 17.330452,15.906053 0 0 1 -5.22835,7.480222 20.375199,18.70055 0 0 1 -5.22836,3.105 l -6.151,2.82272 c -5.99723,2.68159 -9.99538,5.22204 -11.99446,7.76249 a 45.025345,41.324687 0 0 0 -4.76703,9.03273 l -6.151,1.83477 3.99815,3.81067 18.45301,4.6575 a 31.447005,28.862359 0 0 1 3.38306,-7.76249 16.915259,15.524985 0 0 1 7.68875,-5.92772 l 6.30478,-2.6816 a 63.32458,58.119898 0 0 0 13.83976,-7.33908 28.617543,26.265452 0 0 0 9.38028,-14.25476 c 2.61417,-9.314991 0.76887,-16.936347 -5.53591,-22.722933 z"
     id="path1266"
     style="fill:#000000;stroke:#536dfe;stroke-width:2.65176px;stroke-linecap:round;stroke-linejoin:round;stroke-opacity:1" />
  <path
     class="cls-6"
     d="m 403.38029,139.81142 -0.6151,-0.14114 a 10.302931,9.4561272 0 0 0 -12.60956,7.05681 11.194826,10.274717 0 0 0 6.61233,12.70226 l 0.6151,0.28227 c 5.5359,1.69364 11.37936,-1.41136 13.07088,-7.05681 1.69153,-5.64545 -1.53775,-11.43203 -7.07365,-12.84339 z"
     id="path1268"
     style="fill:#000000;stroke:#536dfe;stroke-width:2.65176px;stroke-linecap:round;stroke-linejoin:round;stroke-opacity:1" />
  <path
     class="cls-7"
     d="m 401.22744,62.468756 a 40.258317,36.949464 0 0 1 20.45208,-2.540453 c 10.45671,1.12909 18.76056,4.375223 24.91157,9.879536 6.151,5.504313 8.15008,13.407942 5.38212,23.005205 a 29.217266,26.815883 0 0 1 -9.38028,14.254756 c -2.61417,2.11705 -7.22742,4.51636 -13.83975,7.33909 l -6.30478,2.68159 a 16.915259,15.524985 0 0 0 -7.68876,5.92772 41.04257,37.669259 0 0 0 -3.38305,7.7625 l -18.45301,-4.6575 c 2.61418,-7.33909 4.76703,-12.13772 6.91988,-14.67817 2.15285,-2.54046 5.99723,-5.08091 11.99446,-7.7625 l 6.151,-2.82272 a 21.897572,20.097799 0 0 0 5.22835,-3.104998 15.608171,14.325327 0 0 0 5.22836,-7.48022 16.730729,15.355622 0 0 0 -0.46133,-9.456127 c -1.2302,-2.963861 -4.76703,-4.798632 -10.14915,-5.504313 -5.38213,-0.705681 -9.38028,0.423409 -12.45579,3.246133 a 23.466078,21.537388 0 0 0 -6.30478,9.456128 L 381.0829,85.050552 c 4.3057,-11.432035 10.76426,-18.771118 20.14454,-22.581796 z m -1.99908,75.084484 0.6151,0.14113 a 11.164071,10.24649 0 0 1 7.07365,12.70226 v 0 c -1.69152,5.64545 -7.68875,8.75045 -13.07088,7.05681 l -0.6151,-0.28227 a 11.194826,10.274717 0 0 1 -6.61233,-12.70226 v 0 a 10.395196,9.540809 0 0 1 12.60956,-6.91567 z"
     id="path1270"
     style="fill:#536dfe;fill-opacity:1;stroke-width:1.4732" />
  <path
     class="cls-19"
     d="m 188.61227,172.96485 -8.8,-80.600003 a 5.41,5.41 0 0 0 -4.6,-4.7 l -114.100006,-14.9 a 4.06,4.06 0 0 0 -4.5,4.5 l 11.2,96.100003 a 5.31,5.31 0 0 0 5.3,4.7 l 111.400006,-0.6 a 4,4 0 0 0 4.1,-4.5 z"
     id="path1091"
     style="fill:#000000;stroke:#ffffff;stroke-width:1.8px;stroke-linecap:round;stroke-linejoin:round" />
  <path
     class="cls-8"
     d="M 179.21227,164.56487 H 87.812264 l -0.3,-3 19.300006,-27.2 a 8.58,8.58 0 0 1 10.4,-3 l 8.8,3.6 a 8.71,8.71 0 0 0 10.7,-3.5 l 3.9,-6.4 a 8.65,8.65 0 0 1 10.5,-3.6 8.59,8.59 0 0 0 10,-2.8 l 12,-15.7 z"
     id="path1095"
     style="fill:#536dfe;fill-opacity:1" />
  <line
     class="cls-21"
     x1="87.512268"
     y1="161.56487"
     x2="80.612274"
     y2="101.76485"
     id="line1097"
     style="fill:#ffffff;stroke:#fffff2;stroke-width:1.8px;stroke-linecap:round;stroke-linejoin:round;stroke-opacity:1" />
  <path
     class="cls-21"
     d="m 87.212264,158.86485 15.700006,-41 a 8.15,8.15 0 0 1 10.7,-4.7 l 8.1,3.2 a 8.38,8.38 0 0 0 9.4,-2.4 l 5.4,-6.6 a 8.13,8.13 0 0 1 11.8,-0.9 v 0 a 8.13,8.13 0 0 0 9.9,0.8 l 14.6,-9.300003"
     id="path1099"
     style="fill:none;stroke:#dcd1ff;stroke-width:1.8px;stroke-linecap:round;stroke-linejoin:round;stroke-opacity:0.666667" />
  <path
     class="cls-16"
     d="m 79.912264,93.864847 -0.6,-4.8 a 1.16,1.16 0 0 1 1.3,-1.3 l 21.700006,2.3 a 1.49,1.49 0 0 1 1.3,1.2 l 0.7,4.4 a 0.86,0.86 0 0 1 -1,1 l -22.100006,-1.6 a 1.23,1.23 0 0 1 -1.3,-1.2 z"
     id="path1101"
     style="fill:#ffffff" />
</svg>
